<svg width="48" height="48" viewBox="0 0 48 48" fill="none" xmlns="http://www.w3.org/2000/svg">
<rect width="48" height="48" rx="24" fill="black"/>
<path d="M24.004 12.1958C27.8517 12.1958 28.3034 12.2129 29.8242 12.2815C31.2306 12.3444 31.9911 12.5788 32.4999 12.7789C33.1745 13.0419 33.6548 13.3507 34.1579 13.8538C34.661 14.3569 34.9755 14.8372 35.2328 15.5118C35.4272 16.0206 35.6673 16.781 35.7302 18.1875C35.7988 19.7083 35.8159 20.16 35.8159 24.0077C35.8159 27.8555 35.7988 28.3071 35.7302 29.8279C35.6673 31.2344 35.4329 31.9948 35.2328 32.5036C34.9698 33.1783 34.661 33.6585 34.1579 34.1617C33.6548 34.6648 33.1745 34.9792 32.4999 35.2365C31.9911 35.4309 31.2306 35.671 29.8242 35.7339C28.3034 35.8025 27.8517 35.8197 24.004 35.8197C20.1562 35.8197 19.7045 35.8025 18.1837 35.7339C16.7773 35.671 16.0169 35.4366 15.508 35.2365C14.8334 34.9735 14.3531 34.6648 13.85 34.1617C13.3469 33.6585 13.0324 33.1783 12.7752 32.5036C12.5808 31.9948 12.3406 31.2344 12.2778 29.8279C12.2091 28.3071 12.192 27.8555 12.192 24.0077C12.192 20.16 12.2091 19.7083 12.2778 18.1875C12.3406 16.781 12.5751 16.0206 12.7752 15.5118C13.0382 14.8372 13.3469 14.3569 13.85 13.8538C14.3531 13.3507 14.8334 13.0362 15.508 12.7789C16.0169 12.5845 16.7773 12.3444 18.1837 12.2815C19.7045 12.2072 20.1619 12.1958 24.004 12.1958ZM24.004 9.6001C20.0933 9.6001 19.6016 9.61725 18.0637 9.68586C16.5314 9.75447 15.4852 10.0003 14.5704 10.3548C13.6213 10.7207 12.8209 11.2181 12.0205 12.0185C11.2201 12.8189 10.7284 13.6251 10.3567 14.5684C10.0023 15.4832 9.75642 16.5295 9.68781 18.0674C9.6192 19.5997 9.60205 20.0914 9.60205 24.002C9.60205 27.9126 9.6192 28.4043 9.68781 29.9423C9.75642 31.4745 10.0023 32.5208 10.3567 33.4413C10.7226 34.3904 11.2201 35.1908 12.0205 35.9912C12.8209 36.7916 13.627 37.2833 14.5704 37.6549C15.4852 38.0094 16.5314 38.2553 18.0694 38.3239C19.6074 38.3925 20.0933 38.4096 24.0097 38.4096C27.926 38.4096 28.412 38.3925 29.95 38.3239C31.4822 38.2553 32.5285 38.0094 33.449 37.6549C34.398 37.289 35.1985 36.7916 35.9989 35.9912C36.7993 35.1908 37.291 34.3846 37.6626 33.4413C38.0171 32.5265 38.2629 31.4802 38.3316 29.9423C38.4002 28.4043 38.4173 27.9184 38.4173 24.002C38.4173 20.0856 38.4002 19.5997 38.3316 18.0617C38.2629 16.5295 38.0171 15.4832 37.6626 14.5627C37.2967 13.6136 36.7993 12.8132 35.9989 12.0128C35.1985 11.2124 34.3923 10.7207 33.449 10.3491C32.5342 9.99459 31.4879 9.74875 29.95 9.68014C28.4063 9.61725 27.9146 9.6001 24.004 9.6001Z" fill="white"/>
<path d="M24.004 12.1958C27.8517 12.1958 28.3034 12.2129 29.8242 12.2815C31.2306 12.3444 31.9911 12.5788 32.4999 12.7789C33.1745 13.0419 33.6548 13.3507 34.1579 13.8538C34.661 14.3569 34.9755 14.8372 35.2328 15.5118C35.4272 16.0206 35.6673 16.781 35.7302 18.1875C35.7988 19.7083 35.8159 20.16 35.8159 24.0077C35.8159 27.8555 35.7988 28.3071 35.7302 29.8279C35.6673 31.2344 35.4329 31.9948 35.2328 32.5036C34.9698 33.1783 34.661 33.6585 34.1579 34.1617C33.6548 34.6648 33.1745 34.9792 32.4999 35.2365C31.9911 35.4309 31.2306 35.671 29.8242 35.7339C28.3034 35.8025 27.8517 35.8197 24.004 35.8197C20.1562 35.8197 19.7045 35.8025 18.1837 35.7339C16.7773 35.671 16.0169 35.4366 15.508 35.2365C14.8334 34.9735 14.3531 34.6648 13.85 34.1617C13.3469 33.6585 13.0324 33.1783 12.7752 32.5036C12.5808 31.9948 12.3406 31.2344 12.2778 29.8279C12.2091 28.3071 12.192 27.8555 12.192 24.0077C12.192 20.16 12.2091 19.7083 12.2778 18.1875C12.3406 16.781 12.5751 16.0206 12.7752 15.5118C13.0382 14.8372 13.3469 14.3569 13.85 13.8538C14.3531 13.3507 14.8334 13.0362 15.508 12.7789C16.0169 12.5845 16.7773 12.3444 18.1837 12.2815C19.7045 12.2072 20.1619 12.1958 24.004 12.1958Z" fill="white"/>
<path d="M24.0037 16.6094C19.9215 16.6094 16.6055 19.9197 16.6055 24.0076C16.6055 28.0954 19.9158 31.4058 24.0037 31.4058C28.0915 31.4058 31.4019 28.0954 31.4019 24.0076C31.4019 19.9197 28.0915 16.6094 24.0037 16.6094ZM24.0037 28.8044C21.3508 28.8044 19.2011 26.6547 19.2011 24.0019C19.2011 21.349 21.3508 19.1993 24.0037 19.1993C26.6565 19.1993 28.8062 21.349 28.8062 24.0019C28.8062 26.6547 26.6565 28.8044 24.0037 28.8044Z" fill="black"/>
<path d="M31.6934 18.0387C32.647 18.0387 33.4201 17.2657 33.4201 16.3121C33.4201 15.3585 32.647 14.5854 31.6934 14.5854C30.7398 14.5854 29.9668 15.3585 29.9668 16.3121C29.9668 17.2657 30.7398 18.0387 31.6934 18.0387Z" fill="black"/>
</svg>
