<svg width="48" height="48" viewBox="0 0 48 48" fill="none" xmlns="http://www.w3.org/2000/svg">
<rect width="48" height="48" rx="24" fill="#0A66C2"/>
<path d="M35.251 10.7998H12.7486C12.2318 10.7998 11.7361 11.0051 11.3706 11.3706C11.0051 11.7361 10.7998 12.2318 10.7998 12.7486V35.251C10.7998 35.7678 11.0051 36.2635 11.3706 36.629C11.7361 36.9945 12.2318 37.1998 12.7486 37.1998H35.251C35.7678 37.1998 36.2635 36.9945 36.629 36.629C36.9945 36.2635 37.1998 35.7678 37.1998 35.251V12.7486C37.1998 12.2318 36.9945 11.7361 36.629 11.3706C36.2635 11.0051 35.7678 10.7998 35.251 10.7998ZM18.6685 33.2893H14.6993V20.6815H18.6685V33.2893ZM16.6811 18.9343C16.2309 18.9318 15.7915 18.7959 15.4184 18.5439C15.0453 18.2919 14.7552 17.935 14.5848 17.5183C14.4143 17.1015 14.3711 16.6437 14.4606 16.2024C14.5502 15.7612 14.7684 15.3563 15.0878 15.039C15.4072 14.7216 15.8134 14.506 16.2552 14.4193C16.697 14.3326 17.1546 14.3788 17.5703 14.5519C17.9859 14.725 18.3409 15.0174 18.5905 15.3921C18.8401 15.7668 18.9732 16.2071 18.9728 16.6573C18.9771 16.9587 18.9206 17.2579 18.8067 17.5371C18.6929 17.8162 18.524 18.0696 18.3101 18.2821C18.0963 18.4946 17.8418 18.6618 17.562 18.7739C17.2821 18.8859 16.9825 18.9405 16.6811 18.9343ZM33.2985 33.3003H29.3311V26.4125C29.3311 24.3811 28.4676 23.7541 27.353 23.7541C26.176 23.7541 25.021 24.6415 25.021 26.4638V33.3003H21.0518V20.6906H24.8688V22.4378H24.9201C25.3033 21.6623 26.6453 20.3368 28.6931 20.3368C30.9078 20.3368 33.3003 21.6513 33.3003 25.5013L33.2985 33.3003Z" fill="white"/>
</svg>
