<svg width="48" height="48" viewBox="0 0 48 48" fill="none" xmlns="http://www.w3.org/2000/svg">
<rect width="48" height="48" rx="24" fill="black"/>
<path d="M30.6925 19.3288C32.8532 20.8789 35.5001 21.7909 38.359 21.7909V16.27C37.8179 16.2702 37.2783 16.2135 36.7489 16.101V20.4467C33.8903 20.4467 31.2437 19.5347 29.0825 17.9848V29.2512C29.0825 34.8873 24.5298 39.4559 18.9141 39.4559C16.8188 39.4559 14.8712 38.8201 13.2534 37.7298C15.0999 39.6246 17.6749 40.7999 20.5238 40.7999C26.1398 40.7999 30.6927 36.2313 30.6927 30.5951V19.3288H30.6925V19.3288ZM32.6786 13.759C31.5744 12.5483 30.8494 10.9837 30.6925 9.25404V8.54395H29.1668C29.5508 10.7424 30.8607 12.6206 32.6786 13.759ZM16.8053 33.4049C16.1884 32.5931 15.855 31.6 15.8565 30.5789C15.8565 28.0012 17.9389 25.9112 20.5079 25.9112C20.9867 25.911 21.4626 25.9846 21.9189 26.1299V20.4857C21.3857 20.4123 20.8475 20.3812 20.3096 20.3926V24.7858C19.853 24.6405 19.3768 24.5667 18.8979 24.5672C16.3288 24.5672 14.2466 26.657 14.2466 29.2351C14.2466 31.0579 15.2874 32.6361 16.8053 33.4049Z" fill="#FF004F"/>
<path d="M29.0826 17.9846C31.2439 19.5346 33.8905 20.4466 36.7491 20.4466V16.1009C35.1534 15.7598 33.7409 14.923 32.6788 13.759C30.8608 12.6205 29.551 10.7423 29.1669 8.54395H25.1593V30.5948C25.1502 33.1655 23.0714 35.247 20.5079 35.247C18.9972 35.247 17.6551 34.5244 16.8052 33.4049C15.2874 32.6361 14.2465 31.0578 14.2465 29.2352C14.2465 26.6574 16.3288 24.5673 18.8979 24.5673C19.3901 24.5673 19.8645 24.6442 20.3095 24.7859V20.3927C14.7925 20.5071 10.3555 25.0311 10.3555 30.595C10.3555 33.3724 11.4604 35.8903 13.2537 37.73C14.8715 38.8201 16.819 39.456 18.9144 39.456C24.5302 39.456 29.0828 34.8871 29.0828 29.2512V17.9846H29.0826Z" fill="white"/>
<path d="M36.7491 16.1011V14.9261C35.3102 14.9283 33.8996 14.5239 32.6788 13.7591C33.7595 14.9465 35.1825 15.7652 36.7491 16.1011ZM29.167 8.54417C29.1303 8.33407 29.1022 8.12259 29.0827 7.91029V7.2002H23.5492V29.2513C23.5404 31.8217 21.4617 33.9032 18.8979 33.9032C18.1452 33.9032 17.4345 33.7239 16.8052 33.4053C17.6552 34.5246 18.9972 35.2471 20.5079 35.2471C23.0712 35.2471 25.1504 33.1659 25.1593 30.5952V8.54417H29.167ZM20.3098 20.393V19.142C19.8474 19.0786 19.3813 19.0468 18.9145 19.047C13.2983 19.0469 8.74561 23.6157 8.74561 29.2513C8.74561 32.7845 10.5349 35.8983 13.2538 37.73C11.4605 35.8904 10.3556 33.3724 10.3556 30.5951C10.3556 25.0313 14.7925 20.5073 20.3098 20.393Z" fill="#00F2EA"/>
</svg>
