<svg width="75" height="31" viewBox="0 0 75 31" fill="none" xmlns="http://www.w3.org/2000/svg">
<path d="M9.41428 9.14307C10.6486 9.14307 11.8143 9.38307 12.9114 9.86307C14.0086 10.3216 14.9557 10.9602 15.7571 11.7831C16.58 12.5845 17.2186 13.5316 17.6771 14.6288C18.1571 15.7045 18.3971 16.8574 18.3971 18.0916V26.6631H15.4143V24.7431C14.6129 25.4502 13.7 26.0116 12.6714 26.4231C11.6643 26.8131 10.58 27.0059 9.41428 27.0059C8.18 27.0059 7.02714 26.7788 5.95143 26.3202C4.87571 25.8402 3.92857 25.2016 3.10571 24.4002C2.30429 23.5988 1.66571 22.6645 1.18571 21.5888C0.727143 20.4916 0.5 19.3259 0.5 18.0916C0.5 16.8574 0.727143 15.7045 1.18571 14.6288C1.66571 13.5316 2.30429 12.5845 3.10571 11.7831C3.92857 10.9602 4.87571 10.3216 5.95143 9.86307C7.02714 9.38307 8.18 9.14307 9.41428 9.14307ZM9.41428 12.0916C8.59143 12.0916 7.81571 12.2502 7.08286 12.5716C6.35 12.8674 5.71143 13.2916 5.16286 13.8402C4.63571 14.3888 4.21571 15.0274 3.89428 15.7602C3.57286 16.4931 3.41429 17.2688 3.41429 18.0916C3.41429 18.9145 3.57286 19.6902 3.89428 20.4231C4.21571 21.1559 4.63571 21.7945 5.16286 22.3431C5.71143 22.8702 6.35 23.2902 7.08286 23.6116C7.81571 23.9331 8.59143 24.0916 9.41428 24.0916C10.2371 24.0916 11.0471 23.9331 11.78 23.6116C12.5129 23.2902 13.1386 22.8702 13.6657 22.3431C14.2143 21.7945 14.6386 21.1559 14.9343 20.4231C15.2557 19.6902 15.4143 18.9145 15.4143 18.0916C15.4143 17.2688 15.2557 16.4931 14.9343 15.7602C14.6386 15.0274 14.2143 14.3888 13.6657 13.8402C13.1386 13.2916 12.5129 12.8674 11.78 12.5716C11.0471 12.2502 10.2586 12.0916 9.41428 12.0916ZM21.6629 9.55449H24.6114V26.6974H21.6629V9.55449Z" fill="#85A5FF"/>
<path d="M25.2854 3.28579C25.2854 4.70595 24.1342 5.85722 22.714 5.85722C21.2938 5.85722 20.1426 4.70595 20.1426 3.28579C20.1426 1.86562 21.2938 0.714355 22.714 0.714355C24.1342 0.714355 25.2854 1.86562 25.2854 3.28579Z" fill="#597EF7"/>
<path d="M29.5086 14.1934H30.9006V24.4654H37.1566V25.8574H29.5086V14.1934Z" fill="#5D6679"/>
<path d="M45.9507 21.2014C45.8654 20.9028 45.7374 20.6254 45.5667 20.3694C45.4067 20.1028 45.2094 19.8788 44.9747 19.6974C44.74 19.5054 44.4734 19.3561 44.1747 19.2494C43.8867 19.1428 43.5774 19.0894 43.2467 19.0894C42.916 19.0894 42.6014 19.1428 42.3027 19.2494C42.0147 19.3561 41.7534 19.5054 41.5187 19.6974C41.284 19.8788 41.0814 20.1028 40.9107 20.3694C40.74 20.6254 40.6174 20.9028 40.5427 21.2014H45.9507ZM43.2467 26.0494C42.6707 26.0494 42.1267 25.9428 41.6147 25.7294C41.1134 25.5054 40.6707 25.2068 40.2867 24.8334C39.9134 24.4494 39.6147 24.0068 39.3907 23.5054C39.1774 23.0041 39.0707 22.4654 39.0707 21.8894C39.0707 21.3134 39.1774 20.7694 39.3907 20.2574C39.6147 19.7454 39.9134 19.3028 40.2867 18.9294C40.6707 18.5561 41.1134 18.2628 41.6147 18.0494C42.1267 17.8254 42.6707 17.7134 43.2467 17.7134C43.8227 17.7134 44.3614 17.8254 44.8627 18.0494C45.3747 18.2628 45.8174 18.5561 46.1907 18.9294C46.564 19.3028 46.8574 19.7454 47.0707 20.2574C47.2947 20.7694 47.4067 21.3134 47.4067 21.8894C47.4067 21.9641 47.4067 22.0441 47.4067 22.1294C47.4067 22.2148 47.396 22.3588 47.3747 22.5614H40.5427C40.6174 22.8708 40.74 23.1534 40.9107 23.4094C41.0814 23.6654 41.284 23.8894 41.5187 24.0814C41.7534 24.2734 42.0147 24.4228 42.3027 24.5294C42.6014 24.6361 42.916 24.6894 43.2467 24.6894C43.5027 24.6894 43.7587 24.6254 44.0147 24.4974C44.2707 24.3588 44.516 24.1774 44.7507 23.9534L45.7107 24.9134C45.3587 25.2548 44.9694 25.5321 44.5427 25.7454C44.1267 25.9481 43.6947 26.0494 43.2467 26.0494Z" fill="#5D6679"/>
<path d="M53.1819 17.6654C53.7579 17.6654 54.3019 17.7774 54.8139 18.0014C55.3259 18.2148 55.7686 18.5134 56.1419 18.8974C56.5259 19.2708 56.8246 19.7134 57.0379 20.2254C57.2619 20.7268 57.3739 21.2654 57.3739 21.8414V25.8414H55.9819V24.9454C55.6086 25.2761 55.1819 25.5374 54.7019 25.7294C54.2326 25.9108 53.7259 26.0014 53.1819 26.0014C52.6059 26.0014 52.0673 25.8948 51.5659 25.6814C51.0646 25.4574 50.6219 25.1588 50.2379 24.7854C49.8646 24.4121 49.5659 23.9748 49.3419 23.4734C49.1286 22.9614 49.0219 22.4174 49.0219 21.8414C49.0219 21.2654 49.1286 20.7268 49.3419 20.2254C49.5659 19.7134 49.8646 19.2708 50.2379 18.8974C50.6219 18.5134 51.0646 18.2148 51.5659 18.0014C52.0673 17.7774 52.6059 17.6654 53.1819 17.6654ZM53.1819 19.0414C52.7979 19.0414 52.4353 19.1161 52.0939 19.2654C51.7526 19.4041 51.4539 19.6014 51.1979 19.8574C50.9526 20.1134 50.7553 20.4121 50.6059 20.7534C50.4566 21.0948 50.3819 21.4574 50.3819 21.8414C50.3819 22.2254 50.4566 22.5881 50.6059 22.9294C50.7553 23.2708 50.9526 23.5694 51.1979 23.8254C51.4539 24.0708 51.7526 24.2681 52.0939 24.4174C52.4353 24.5668 52.7979 24.6414 53.1819 24.6414C53.5766 24.6414 53.9446 24.5668 54.2859 24.4174C54.6273 24.2681 54.9206 24.0708 55.1659 23.8254C55.4219 23.5694 55.6193 23.2708 55.7579 22.9294C55.9073 22.5881 55.9819 22.2254 55.9819 21.8414C55.9819 21.4574 55.9073 21.0948 55.7579 20.7534C55.6193 20.4121 55.4219 20.1134 55.1659 19.8574C54.9206 19.6014 54.6273 19.4041 54.2859 19.2654C53.9446 19.1161 53.5766 19.0414 53.1819 19.0414Z" fill="#5D6679"/>
<path d="M60.4936 25.8574H59.1176V21.8574C59.1176 21.2814 59.2349 20.7374 59.4696 20.2254C59.7042 19.7134 60.0242 19.2708 60.4296 18.8974C60.8349 18.5241 61.3042 18.2308 61.8376 18.0174C62.3816 17.7934 62.9629 17.6814 63.5816 17.6814V19.0574C63.1549 19.0574 62.7549 19.1321 62.3816 19.2814C62.0082 19.4201 61.6776 19.6174 61.3896 19.8734C61.1122 20.1294 60.8936 20.4281 60.7336 20.7694C60.5736 21.1108 60.4936 21.4734 60.4936 21.8574V25.8574Z" fill="#5D6679"/>
<path d="M69.2939 17.6814C69.8699 17.6814 70.4086 17.7934 70.9099 18.0174C71.4219 18.2308 71.8646 18.5241 72.2379 18.8974C72.6219 19.2708 72.9206 19.7134 73.1339 20.2254C73.3579 20.7374 73.4699 21.2814 73.4699 21.8574V25.8574H72.0939V21.8574C72.0939 21.4734 72.0193 21.1108 71.8699 20.7694C71.7313 20.4281 71.5339 20.1294 71.2779 19.8734C71.0326 19.6174 70.7393 19.4201 70.3979 19.2814C70.0566 19.1321 69.6886 19.0574 69.2939 19.0574C68.9099 19.0574 68.5473 19.1321 68.2059 19.2814C67.8646 19.4201 67.5659 19.6174 67.3099 19.8734C67.0646 20.1294 66.8673 20.4281 66.7179 20.7694C66.5686 21.1108 66.4939 21.4734 66.4939 21.8574V25.8574H65.1339V21.8574C65.1339 21.2814 65.2406 20.7374 65.4539 20.2254C65.6779 19.7134 65.9766 19.2708 66.3499 18.8974C66.7339 18.5241 67.1766 18.2308 67.6779 18.0174C68.1793 17.7934 68.7179 17.6814 69.2939 17.6814Z" fill="#5D6679"/>
</svg>
