<svg width="75" height="31" viewBox="0 0 75 31" fill="none" xmlns="http://www.w3.org/2000/svg">
<path d="M9.41428 9C10.6486 9 11.8143 9.24 12.9114 9.72C14.0086 10.1786 14.9557 10.8171 15.7571 11.64C16.58 12.4414 17.2186 13.3886 17.6771 14.4857C18.1571 15.5614 18.3971 16.7143 18.3971 17.9486V26.52H15.4143V24.6C14.6129 25.3071 13.7 25.8686 12.6714 26.28C11.6643 26.67 10.58 26.8629 9.41428 26.8629C8.18 26.8629 7.02714 26.6357 5.95143 26.1772C4.87571 25.6972 3.92857 25.0586 3.10571 24.2571C2.30429 23.4557 1.66571 22.5214 1.18571 21.4457C0.727143 20.3486 0.5 19.1829 0.5 17.9486C0.5 16.7143 0.727143 15.5614 1.18571 14.4857C1.66571 13.3886 2.30429 12.4414 3.10571 11.64C3.92857 10.8171 4.87571 10.1786 5.95143 9.72C7.02714 9.24 8.18 9 9.41428 9ZM9.41428 11.9486C8.59143 11.9486 7.81571 12.1071 7.08286 12.4286C6.35 12.7243 5.71143 13.1486 5.16286 13.6971C4.63571 14.2457 4.21571 14.8843 3.89428 15.6171C3.57286 16.35 3.41429 17.1257 3.41429 17.9486C3.41429 18.7714 3.57286 19.5471 3.89428 20.28C4.21571 21.0129 4.63571 21.6514 5.16286 22.2C5.71143 22.7271 6.35 23.1472 7.08286 23.4686C7.81571 23.79 8.59143 23.9486 9.41428 23.9486C10.2371 23.9486 11.0471 23.79 11.78 23.4686C12.5129 23.1472 13.1386 22.7271 13.6657 22.2C14.2143 21.6514 14.6386 21.0129 14.9343 20.28C15.2557 19.5471 15.4143 18.7714 15.4143 17.9486C15.4143 17.1257 15.2557 16.35 14.9343 15.6171C14.6386 14.8843 14.2143 14.2457 13.6657 13.6971C13.1386 13.1486 12.5129 12.7243 11.78 12.4286C11.0471 12.1071 10.2586 11.9486 9.41428 11.9486ZM21.6629 9.41143H24.6114V26.5543H21.6629V9.41143Z" fill="#85A5FF"/>
<path d="M25.2854 3.14272C25.2854 4.56288 24.1342 5.71415 22.714 5.71415C21.2938 5.71415 20.1426 4.56288 20.1426 3.14272C20.1426 1.72256 21.2938 0.571289 22.714 0.571289C24.1342 0.571289 25.2854 1.72256 25.2854 3.14272Z" fill="#597EF7"/>
<path d="M29.5086 14.0504H30.9006V24.3224H37.1566V25.7144H29.5086V14.0504Z" fill="white"/>
<path d="M45.9507 21.0584C45.8654 20.7597 45.7374 20.4824 45.5667 20.2264C45.4067 19.9597 45.2094 19.7357 44.9747 19.5544C44.74 19.3624 44.4734 19.213 44.1747 19.1064C43.8867 18.9997 43.5774 18.9464 43.2467 18.9464C42.916 18.9464 42.6014 18.9997 42.3027 19.1064C42.0147 19.213 41.7534 19.3624 41.5187 19.5544C41.284 19.7357 41.0814 19.9597 40.9107 20.2264C40.74 20.4824 40.6174 20.7597 40.5427 21.0584H45.9507ZM43.2467 25.9064C42.6707 25.9064 42.1267 25.7997 41.6147 25.5864C41.1134 25.3624 40.6707 25.0637 40.2867 24.6904C39.9134 24.3064 39.6147 23.8637 39.3907 23.3624C39.1774 22.861 39.0707 22.3224 39.0707 21.7464C39.0707 21.1704 39.1774 20.6264 39.3907 20.1144C39.6147 19.6024 39.9134 19.1597 40.2867 18.7864C40.6707 18.413 41.1134 18.1197 41.6147 17.9064C42.1267 17.6824 42.6707 17.5704 43.2467 17.5704C43.8227 17.5704 44.3614 17.6824 44.8627 17.9064C45.3747 18.1197 45.8174 18.413 46.1907 18.7864C46.564 19.1597 46.8574 19.6024 47.0707 20.1144C47.2947 20.6264 47.4067 21.1704 47.4067 21.7464C47.4067 21.821 47.4067 21.901 47.4067 21.9864C47.4067 22.0717 47.396 22.2157 47.3747 22.4184H40.5427C40.6174 22.7277 40.74 23.0104 40.9107 23.2664C41.0814 23.5224 41.284 23.7464 41.5187 23.9384C41.7534 24.1304 42.0147 24.2797 42.3027 24.3864C42.6014 24.493 42.916 24.5464 43.2467 24.5464C43.5027 24.5464 43.7587 24.4824 44.0147 24.3544C44.2707 24.2157 44.516 24.0344 44.7507 23.8104L45.7107 24.7704C45.3587 25.1117 44.9694 25.389 44.5427 25.6024C44.1267 25.805 43.6947 25.9064 43.2467 25.9064Z" fill="white"/>
<path d="M53.1819 17.5224C53.7579 17.5224 54.3019 17.6344 54.8139 17.8584C55.3259 18.0717 55.7686 18.3704 56.1419 18.7544C56.5259 19.1277 56.8246 19.5704 57.0379 20.0824C57.2619 20.5837 57.3739 21.1224 57.3739 21.6984V25.6984H55.9819V24.8024C55.6086 25.133 55.1819 25.3944 54.7019 25.5864C54.2326 25.7677 53.7259 25.8584 53.1819 25.8584C52.6059 25.8584 52.0673 25.7517 51.5659 25.5384C51.0646 25.3144 50.6219 25.0157 50.2379 24.6424C49.8646 24.269 49.5659 23.8317 49.3419 23.3304C49.1286 22.8184 49.0219 22.2744 49.0219 21.6984C49.0219 21.1224 49.1286 20.5837 49.3419 20.0824C49.5659 19.5704 49.8646 19.1277 50.2379 18.7544C50.6219 18.3704 51.0646 18.0717 51.5659 17.8584C52.0673 17.6344 52.6059 17.5224 53.1819 17.5224ZM53.1819 18.8984C52.7979 18.8984 52.4353 18.973 52.0939 19.1224C51.7526 19.261 51.4539 19.4584 51.1979 19.7144C50.9526 19.9704 50.7553 20.269 50.6059 20.6104C50.4566 20.9517 50.3819 21.3144 50.3819 21.6984C50.3819 22.0824 50.4566 22.445 50.6059 22.7864C50.7553 23.1277 50.9526 23.4264 51.1979 23.6824C51.4539 23.9277 51.7526 24.125 52.0939 24.2744C52.4353 24.4237 52.7979 24.4984 53.1819 24.4984C53.5766 24.4984 53.9446 24.4237 54.2859 24.2744C54.6273 24.125 54.9206 23.9277 55.1659 23.6824C55.4219 23.4264 55.6193 23.1277 55.7579 22.7864C55.9073 22.445 55.9819 22.0824 55.9819 21.6984C55.9819 21.3144 55.9073 20.9517 55.7579 20.6104C55.6193 20.269 55.4219 19.9704 55.1659 19.7144C54.9206 19.4584 54.6273 19.261 54.2859 19.1224C53.9446 18.973 53.5766 18.8984 53.1819 18.8984Z" fill="white"/>
<path d="M60.4936 25.7144H59.1176V21.7144C59.1176 21.1384 59.2349 20.5944 59.4696 20.0824C59.7042 19.5704 60.0242 19.1277 60.4296 18.7544C60.8349 18.381 61.3042 18.0877 61.8376 17.8744C62.3816 17.6504 62.9629 17.5384 63.5816 17.5384V18.9144C63.1549 18.9144 62.7549 18.989 62.3816 19.1384C62.0082 19.277 61.6776 19.4744 61.3896 19.7304C61.1122 19.9864 60.8936 20.285 60.7336 20.6264C60.5736 20.9677 60.4936 21.3304 60.4936 21.7144V25.7144Z" fill="white"/>
<path d="M69.2939 17.5384C69.8699 17.5384 70.4086 17.6504 70.9099 17.8744C71.4219 18.0877 71.8646 18.381 72.2379 18.7544C72.6219 19.1277 72.9206 19.5704 73.1339 20.0824C73.3579 20.5944 73.4699 21.1384 73.4699 21.7144V25.7144H72.0939V21.7144C72.0939 21.3304 72.0193 20.9677 71.8699 20.6264C71.7313 20.285 71.5339 19.9864 71.2779 19.7304C71.0326 19.4744 70.7393 19.277 70.3979 19.1384C70.0566 18.989 69.6886 18.9144 69.2939 18.9144C68.9099 18.9144 68.5473 18.989 68.2059 19.1384C67.8646 19.277 67.5659 19.4744 67.3099 19.7304C67.0646 19.9864 66.8673 20.285 66.7179 20.6264C66.5686 20.9677 66.4939 21.3304 66.4939 21.7144V25.7144H65.1339V21.7144C65.1339 21.1384 65.2406 20.5944 65.4539 20.0824C65.6779 19.5704 65.9766 19.1277 66.3499 18.7544C66.7339 18.381 67.1766 18.0877 67.6779 17.8744C68.1793 17.6504 68.7179 17.5384 69.2939 17.5384Z" fill="white"/>
</svg>
