<svg width="23" height="23" viewBox="0 0 23 23" fill="none" xmlns="http://www.w3.org/2000/svg">
<g clip-path="url(#clip0_81_521)">
<path d="M23 11.5C23 5.14921 17.8508 0 11.5 0C5.14921 0 0 5.14921 0 11.5C0 17.2395 4.20475 21.9973 9.70328 22.8609V14.825H6.78259V11.5H9.70328V8.96583C9.70328 6.08395 11.4208 4.491 14.0471 4.491C15.3053 4.491 16.6217 4.71579 16.6217 4.71579V7.54591H15.1711C13.7431 7.54591 13.2967 8.43215 13.2967 9.34264V11.5H16.4859L15.9764 14.825H13.2967V22.8609C18.7952 21.9989 23 17.2411 23 11.5Z" fill="#0958D9"/>
<path d="M15.9764 14.825L16.4859 11.5H13.2967V9.34264C13.2967 8.43376 13.7415 7.54591 15.1711 7.54591H16.6217V4.71579C16.6217 4.71579 15.3053 4.491 14.0471 4.491C11.4208 4.491 9.70328 6.08233 9.70328 8.96583V11.5H6.78259V14.825H9.70328V22.8609C10.2887 22.9531 10.8887 23 11.5 23C12.1113 23 12.7113 22.9515 13.2967 22.8609V14.825H15.9764Z" fill="#FEFEFE"/>
</g>
<defs>
<clipPath id="clip0_81_521">
<rect width="23" height="23" fill="white"/>
</clipPath>
</defs>
</svg>
