<svg width="22" height="22" viewBox="0 0 22 22" fill="none" xmlns="http://www.w3.org/2000/svg">
<path d="M11.0053 0.166656C6.4818 0.166656 5.15885 0.171323 4.90169 0.192656C3.97338 0.269823 3.39573 0.41599 2.76642 0.729323C2.28143 0.970157 1.89894 1.24932 1.52146 1.64066C0.833976 2.35432 0.417322 3.23232 0.266493 4.27599C0.193162 4.78266 0.17183 4.88599 0.167496 7.47399C0.16583 8.33666 0.167496 9.47199 0.167496 10.9948C0.167496 15.5148 0.172496 16.8365 0.194162 17.0932C0.26916 17.9965 0.410822 18.5648 0.710813 19.1865C1.28413 20.3765 2.3791 21.2698 3.66906 21.6032C4.11571 21.7182 4.60903 21.7815 5.24234 21.8115C5.51067 21.8232 8.24558 21.8315 10.9822 21.8315C13.7188 21.8315 16.4553 21.8282 16.717 21.8148C17.4503 21.7803 17.8761 21.7232 18.3469 21.6015C19.6452 21.2665 20.7202 20.3865 21.3052 19.1798C21.5993 18.5732 21.7485 17.9832 21.816 17.127C21.8307 16.9403 21.8368 13.9642 21.8368 10.992C21.8368 8.01932 21.8302 5.04866 21.8155 4.86199C21.7472 3.99199 21.598 3.40699 21.2944 2.78866C21.0452 2.28249 20.7685 1.90449 20.3669 1.51799C19.6501 0.833323 18.7734 0.416657 17.7288 0.26599C17.2226 0.192823 17.1218 0.171156 14.5319 0.166656H11.0053Z" fill="#0958D9"/>
<path d="M11.0003 3C8.82773 3 8.55507 3.0095 7.70177 3.04833C6.85013 3.08733 6.26881 3.22217 5.76016 3.42C5.23401 3.62433 4.78769 3.89767 4.34303 4.3425C3.89805 4.78717 3.62472 5.2335 3.41973 5.7595C3.2214 6.26833 3.08641 6.84983 3.04807 7.70117C3.00991 8.5545 2.99991 8.82733 2.99991 11C2.99991 13.1727 3.00957 13.4445 3.04824 14.2978C3.08741 15.1495 3.22224 15.7308 3.4199 16.2395C3.62439 16.7657 3.89771 17.212 4.34253 17.6567C4.78702 18.1017 5.23334 18.3757 5.75916 18.58C6.26814 18.7778 6.84963 18.9127 7.7011 18.9517C8.55441 18.9905 8.8269 19 10.9993 19C13.1721 19 13.4439 18.9905 14.2972 18.9517C15.1489 18.9127 15.7309 18.7778 16.2398 18.58C16.7658 18.3757 17.2115 18.1017 17.656 17.6567C18.101 17.212 18.3743 16.7657 18.5793 16.2397C18.7759 15.7308 18.9109 15.1493 18.9509 14.298C18.9893 13.4447 18.9993 13.1727 18.9993 11C18.9993 8.82733 18.9893 8.55467 18.9509 7.70133C18.9109 6.84967 18.7759 6.26833 18.5793 5.75967C18.3743 5.2335 18.101 4.78717 17.656 4.3425C17.211 3.8975 16.766 3.62417 16.2393 3.42C15.7294 3.22217 15.1477 3.08733 14.2961 3.04833C13.4428 3.0095 13.1711 3 10.9978 3H11.0003ZM10.2827 4.44167C10.4957 4.44133 10.7333 4.44167 11.0003 4.44167C13.1363 4.44167 13.3894 4.44933 14.2329 4.48767C15.0129 4.52333 15.4362 4.65367 15.7182 4.76317C16.0915 4.90817 16.3577 5.0815 16.6375 5.3615C16.9175 5.6415 17.0908 5.90817 17.2361 6.2815C17.3456 6.56317 17.4761 6.9865 17.5116 7.7665C17.55 8.60983 17.5583 8.86317 17.5583 10.9982C17.5583 13.1332 17.55 13.3865 17.5116 14.2298C17.476 15.0098 17.3456 15.4332 17.2361 15.7148C17.0911 16.0882 16.9175 16.354 16.6375 16.6338C16.3575 16.9138 16.0917 17.0872 15.7182 17.2322C15.4365 17.3422 15.0129 17.4722 14.2329 17.5078C13.3896 17.5462 13.1363 17.5545 11.0003 17.5545C8.86423 17.5545 8.61107 17.5462 7.76776 17.5078C6.98779 17.4718 6.56447 17.3415 6.28231 17.232C5.90899 17.087 5.64233 16.9137 5.36234 16.6337C5.08235 16.3537 4.90902 16.0877 4.76369 15.7142C4.65419 15.4325 4.5237 15.0092 4.4882 14.2292C4.44986 13.3858 4.4422 13.1325 4.4422 10.9962C4.4422 8.85983 4.44986 8.60783 4.4882 7.7645C4.52386 6.9845 4.65419 6.56117 4.76369 6.27917C4.90868 5.90583 5.08235 5.63917 5.36234 5.35917C5.64233 5.07917 5.90899 4.90583 6.28231 4.7605C6.5643 4.6505 6.98779 4.5205 7.76776 4.48467C8.50574 4.45133 8.79173 4.44133 10.2827 4.43967V4.44167ZM15.2705 5.77C14.7406 5.77 14.3106 6.1995 14.3106 6.72967C14.3106 7.25967 14.7406 7.68967 15.2705 7.68967C15.8005 7.68967 16.2305 7.25967 16.2305 6.72967C16.2305 6.19967 15.8005 5.76967 15.2705 5.76967V5.77ZM11.0003 6.89167C8.73157 6.89167 6.89212 8.73117 6.89212 11C6.89212 13.2688 8.73157 15.1075 11.0003 15.1075C13.2691 15.1075 15.1079 13.2688 15.1079 11C15.1079 8.73117 13.2691 6.89167 11.0003 6.89167ZM11.0003 8.33333C12.473 8.33333 13.6669 9.52717 13.6669 11C13.6669 12.4727 12.473 13.6667 11.0003 13.6667C9.52754 13.6667 8.33375 12.4727 8.33375 11C8.33375 9.52717 9.52754 8.33333 11.0003 8.33333Z" fill="white"/>
</svg>
