<svg width="991" height="375" viewBox="0 0 991 375" fill="none" xmlns="http://www.w3.org/2000/svg">
<mask id="mask0_1_42" style="mask-type:luminance" maskUnits="userSpaceOnUse" x="0" y="0" width="450" height="353">
<path d="M450 0H0V352.93H450V0Z" fill="white"/>
</mask>
<g mask="url(#mask0_1_42)">
<path d="M113.799 179.91C114.379 180.25 114.939 180.59 115.519 180.93L113.789 179.93V179.91H113.799Z" fill="#F29040"/>
<path d="M450 277.93C450 319.35 416.42 352.93 375 352.93H75C33.58 352.93 0 319.35 0 277.93C0 245.29 20.86 217.52 49.97 207.21C53.18 206.07 56.49 205.15 59.89 204.45C62.45 203.93 65.05 203.53 67.69 203.28C70.09 203.05 72.53 202.93 75 202.93H375C378.09 202.93 381.15 203.12 384.14 203.48C387.35 203.87 390.5 204.46 393.57 205.25C426.01 213.51 450 242.92 450 277.93Z" fill="url(#paint0_linear_1_42)"/>
<path opacity="0.2" d="M275.281 352.93L94.4007 272.4C93.7907 272.12 93.1907 271.85 92.5807 271.56C66.8407 259.28 51.1807 234.06 49.9707 207.21C53.1807 206.07 56.4907 205.15 59.8907 204.45C62.4507 203.93 65.0507 203.53 67.6907 203.28C71.5707 223.24 83.5107 241.53 102.091 252.91C102.661 253.26 103.231 253.59 103.811 253.93L275.281 352.93Z" fill="black"/>
<path d="M308.181 0.439989L288.141 73.16L287.391 75.87C283.921 75.01 280.431 74.36 276.931 73.89H276.881C246.361 69.83 215.181 80.14 193.081 102.19H193.071C192.351 102.92 191.661 103.64 190.961 104.38C187.001 108.58 183.361 113.17 180.091 118.15L150.601 78.25C148.341 75.2 149.451 70.84 152.901 69.24L299.941 1.11999C302.601 -0.12001 305.521 -0.300011 308.181 0.439989Z" fill="white"/>
<path d="M308.181 0.439989L288.141 73.16L287.391 75.87C283.921 75.01 280.431 74.36 276.931 73.89H276.881C246.361 69.83 215.181 80.14 193.081 102.19H193.071C192.351 102.92 191.661 103.64 190.961 104.38C187.001 108.58 183.361 113.17 180.091 118.15L150.601 78.25C148.341 75.2 149.451 70.84 152.901 69.24L299.941 1.11999C302.601 -0.12001 305.521 -0.300011 308.181 0.439989Z" fill="url(#paint1_linear_1_42)"/>
<path d="M308.181 0.439989L288.141 73.16L287.391 75.87C283.921 75.01 280.431 74.36 276.931 73.89H276.881C246.361 69.83 215.181 80.14 193.081 102.19H193.071C192.351 102.92 191.661 103.64 190.961 104.38C187.001 108.58 183.361 113.17 180.091 118.15L150.601 78.25C148.341 75.2 149.451 70.84 152.901 69.24L299.941 1.11999C302.601 -0.12001 305.521 -0.300011 308.181 0.439989Z" fill="url(#paint2_linear_1_42)" fill-opacity="0.2"/>
<path d="M405.161 146.45L387.051 154.44L363.341 164.89C362.931 159.87 362.141 154.9 360.981 150.02C354.871 124.15 338.521 100.76 313.681 86.4198C305.241 81.5498 296.391 78.0498 287.391 75.8698L288.141 73.1598L308.181 0.439789C310.791 1.15979 313.161 2.75979 314.801 5.10979L407.651 137.52C409.831 140.61 408.621 144.93 405.161 146.45Z" fill="white"/>
<path d="M405.161 146.45L387.051 154.44L363.341 164.89C362.931 159.87 362.141 154.9 360.981 150.02C354.871 124.15 338.521 100.76 313.681 86.4198C305.241 81.5498 296.391 78.0498 287.391 75.8698L288.141 73.1598L308.181 0.439789C310.791 1.15979 313.161 2.75979 314.801 5.10979L407.651 137.52C409.831 140.61 408.621 144.93 405.161 146.45Z" fill="url(#paint3_linear_1_42)"/>
<path d="M359.121 202.93C356.971 209.8 354.031 216.54 350.281 223.03L275.281 352.93L103.811 253.93C103.231 253.59 102.661 253.26 102.091 252.91C83.5108 241.53 71.5708 223.24 67.6908 203.28C67.6608 203.16 67.6408 203.05 67.6208 202.93C64.3808 185.9 67.0108 167.67 76.3608 151.48C78.4108 147.92 80.7208 144.6 83.2408 141.51C90.8308 132.19 100.391 125.06 110.941 120.4C131.521 111.3 155.911 111.56 177.071 123.04C177.361 123.21 177.651 123.37 177.941 123.53L177.081 123.03C178.041 121.36 179.051 119.73 180.091 118.14C183.361 113.16 187.001 108.57 190.961 104.37C191.661 103.63 192.351 102.91 193.071 102.19H193.081C215.181 80.1299 246.361 69.8199 276.881 73.8799H276.931C280.431 74.3499 283.921 74.9999 287.391 75.8599C296.391 78.0399 305.241 81.5399 313.681 86.4099C338.521 100.75 354.871 124.14 360.981 150.01C362.141 154.89 362.931 159.86 363.341 164.88C364.391 177.51 363.051 190.43 359.121 202.92V202.93Z" fill="url(#paint4_linear_1_42)"/>
<path opacity="0.2" d="M384.139 203.48C382.789 207.75 381.139 211.95 379.179 216.06C376.089 222.56 372.249 228.83 367.629 234.73L275.279 352.93L350.279 223.03C354.029 216.54 356.969 209.8 359.119 202.93H374.999C378.089 202.93 381.149 203.12 384.139 203.48Z" fill="black"/>
<path d="M275.281 352.93L103.811 253.93C103.231 253.59 102.661 253.26 102.091 252.91C83.5108 241.53 71.5708 223.24 67.6908 203.28C67.6608 203.16 67.6408 203.05 67.6208 202.93C64.3808 185.9 67.0108 167.67 76.3608 151.48C78.4108 147.92 80.7208 144.6 83.2408 141.51C90.8308 132.19 100.391 125.06 110.941 120.4C131.521 111.3 155.911 111.56 177.071 123.04L211.201 202.93L275.281 352.93Z" fill="url(#paint5_linear_1_42)"/>
<path d="M406.921 185.3H410.081C413.721 185.3 416.401 181.88 415.511 178.34L411.221 161.16C410.511 158.33 406.491 158.33 405.791 161.16L401.501 178.34C400.621 181.87 403.291 185.3 406.931 185.3H406.921Z" fill="url(#paint6_linear_1_42)"/>
</g>
<mask id="path-13-outside-1_1_42" maskUnits="userSpaceOnUse" x="511" y="117" width="75" height="237" fill="black">
<rect fill="white" x="511" y="117" width="75" height="237"/>
<path d="M516.446 120.772H527.93V205.516H579.542V217H516.446V120.772ZM549.296 251.452C555.808 251.452 561.836 253.256 567.38 256.864C573.012 260.472 577.588 265.312 581.108 271.384L570.944 276.928C568.568 272.704 565.488 269.316 561.704 266.764C557.92 264.212 553.784 262.936 549.296 262.936C546.04 262.936 542.96 263.552 540.056 264.784C537.24 266.016 534.732 267.732 532.532 269.932C530.42 272.044 528.748 274.552 527.516 277.456C526.284 280.272 525.668 283.308 525.668 286.564V315.34C525.668 318.596 526.284 321.676 527.516 324.58C528.748 327.396 530.42 329.86 532.532 331.972C534.732 334.084 537.24 335.756 540.056 336.988C542.96 338.22 546.04 338.836 549.296 338.836C553.784 338.836 557.92 337.604 561.704 335.14C565.488 332.588 568.568 329.2 570.944 324.976L581.108 330.652C577.588 336.636 573.056 341.432 567.512 345.04C561.968 348.56 555.896 350.32 549.296 350.32C544.456 350.32 539.88 349.396 535.568 347.548C531.344 345.7 527.648 343.192 524.48 340.024C521.312 336.856 518.804 333.16 516.956 328.936C515.108 324.712 514.184 320.18 514.184 315.34V286.564C514.184 281.724 515.108 277.192 516.956 272.968C518.804 268.656 521.312 264.916 524.48 261.748C527.648 258.58 531.344 256.072 535.568 254.224C539.88 252.376 544.456 251.452 549.296 251.452Z"/>
</mask>
<path d="M516.446 120.772H527.93V205.516H579.542V217H516.446V120.772ZM549.296 251.452C555.808 251.452 561.836 253.256 567.38 256.864C573.012 260.472 577.588 265.312 581.108 271.384L570.944 276.928C568.568 272.704 565.488 269.316 561.704 266.764C557.92 264.212 553.784 262.936 549.296 262.936C546.04 262.936 542.96 263.552 540.056 264.784C537.24 266.016 534.732 267.732 532.532 269.932C530.42 272.044 528.748 274.552 527.516 277.456C526.284 280.272 525.668 283.308 525.668 286.564V315.34C525.668 318.596 526.284 321.676 527.516 324.58C528.748 327.396 530.42 329.86 532.532 331.972C534.732 334.084 537.24 335.756 540.056 336.988C542.96 338.22 546.04 338.836 549.296 338.836C553.784 338.836 557.92 337.604 561.704 335.14C565.488 332.588 568.568 329.2 570.944 324.976L581.108 330.652C577.588 336.636 573.056 341.432 567.512 345.04C561.968 348.56 555.896 350.32 549.296 350.32C544.456 350.32 539.88 349.396 535.568 347.548C531.344 345.7 527.648 343.192 524.48 340.024C521.312 336.856 518.804 333.16 516.956 328.936C515.108 324.712 514.184 320.18 514.184 315.34V286.564C514.184 281.724 515.108 277.192 516.956 272.968C518.804 268.656 521.312 264.916 524.48 261.748C527.648 258.58 531.344 256.072 535.568 254.224C539.88 252.376 544.456 251.452 549.296 251.452Z" fill="white"/>
<path d="M516.446 120.772H527.93V205.516H579.542V217H516.446V120.772ZM549.296 251.452C555.808 251.452 561.836 253.256 567.38 256.864C573.012 260.472 577.588 265.312 581.108 271.384L570.944 276.928C568.568 272.704 565.488 269.316 561.704 266.764C557.92 264.212 553.784 262.936 549.296 262.936C546.04 262.936 542.96 263.552 540.056 264.784C537.24 266.016 534.732 267.732 532.532 269.932C530.42 272.044 528.748 274.552 527.516 277.456C526.284 280.272 525.668 283.308 525.668 286.564V315.34C525.668 318.596 526.284 321.676 527.516 324.58C528.748 327.396 530.42 329.86 532.532 331.972C534.732 334.084 537.24 335.756 540.056 336.988C542.96 338.22 546.04 338.836 549.296 338.836C553.784 338.836 557.92 337.604 561.704 335.14C565.488 332.588 568.568 329.2 570.944 324.976L581.108 330.652C577.588 336.636 573.056 341.432 567.512 345.04C561.968 348.56 555.896 350.32 549.296 350.32C544.456 350.32 539.88 349.396 535.568 347.548C531.344 345.7 527.648 343.192 524.48 340.024C521.312 336.856 518.804 333.16 516.956 328.936C515.108 324.712 514.184 320.18 514.184 315.34V286.564C514.184 281.724 515.108 277.192 516.956 272.968C518.804 268.656 521.312 264.916 524.48 261.748C527.648 258.58 531.344 256.072 535.568 254.224C539.88 252.376 544.456 251.452 549.296 251.452Z" fill="url(#paint7_linear_1_42)"/>
<path d="M516.446 120.772V117.772H513.446V120.772H516.446ZM527.93 120.772H530.93V117.772H527.93V120.772ZM527.93 205.516H524.93V208.516H527.93V205.516ZM579.542 205.516H582.542V202.516H579.542V205.516ZM579.542 217V220H582.542V217H579.542ZM516.446 217H513.446V220H516.446V217ZM516.446 123.772H527.93V117.772H516.446V123.772ZM524.93 120.772V205.516H530.93V120.772H524.93ZM527.93 208.516H579.542V202.516H527.93V208.516ZM576.542 205.516V217H582.542V205.516H576.542ZM579.542 214H516.446V220H579.542V214ZM519.446 217V120.772H513.446V217H519.446ZM567.38 256.864L565.743 259.378L565.752 259.384L565.761 259.39L567.38 256.864ZM581.108 271.384L582.544 274.018L585.247 272.543L583.703 269.879L581.108 271.384ZM570.944 276.928L568.329 278.399L569.781 280.98L572.38 279.562L570.944 276.928ZM540.056 264.784L538.884 262.022L538.869 262.029L538.853 262.036L540.056 264.784ZM532.532 269.932L534.653 272.053L534.653 272.053L532.532 269.932ZM527.516 277.456L530.264 278.658L530.271 278.643L530.277 278.628L527.516 277.456ZM527.516 324.58L524.754 325.752L524.76 325.767L524.767 325.782L527.516 324.58ZM532.532 331.972L530.41 334.093L530.432 334.115L530.454 334.136L532.532 331.972ZM540.056 336.988L538.853 339.736L538.869 339.743L538.884 339.75L540.056 336.988ZM561.704 335.14L563.341 337.654L563.361 337.641L563.381 337.627L561.704 335.14ZM570.944 324.976L572.406 322.357L569.795 320.899L568.329 323.505L570.944 324.976ZM581.108 330.652L583.693 332.173L585.249 329.529L582.57 328.033L581.108 330.652ZM567.512 345.04L569.12 347.573L569.134 347.564L569.148 347.554L567.512 345.04ZM535.568 347.548L534.365 350.296L534.375 350.301L534.386 350.305L535.568 347.548ZM524.48 340.024L522.358 342.145L522.358 342.145L524.48 340.024ZM516.956 328.936L519.704 327.734L519.704 327.734L516.956 328.936ZM516.956 272.968L519.704 274.17L519.709 274.16L519.713 274.15L516.956 272.968ZM524.48 261.748L522.358 259.627L522.358 259.627L524.48 261.748ZM535.568 254.224L534.386 251.467L534.375 251.471L534.365 251.476L535.568 254.224ZM549.296 254.452C555.217 254.452 560.678 256.082 565.743 259.378L569.016 254.35C562.993 250.43 556.398 248.452 549.296 248.452V254.452ZM565.761 259.39C570.971 262.727 575.22 267.209 578.512 272.889L583.703 269.879C579.956 263.415 575.052 258.217 568.998 254.338L565.761 259.39ZM579.671 268.75L569.507 274.294L572.38 279.562L582.544 274.018L579.671 268.75ZM573.558 275.457C570.968 270.852 567.576 267.106 563.381 264.277L560.026 269.251C563.399 271.526 566.167 274.556 568.329 278.399L573.558 275.457ZM563.381 264.277C559.11 261.397 554.392 259.936 549.296 259.936V265.936C553.175 265.936 556.729 267.027 560.026 269.251L563.381 264.277ZM549.296 259.936C545.65 259.936 542.171 260.628 538.884 262.022L541.227 267.546C543.749 266.476 546.429 265.936 549.296 265.936V259.936ZM538.853 262.036C535.69 263.419 532.871 265.349 530.41 267.811L534.653 272.053C536.592 270.115 538.789 268.613 541.258 267.532L538.853 262.036ZM530.41 267.811C528.011 270.21 526.128 273.046 524.754 276.284L530.277 278.628C531.367 276.058 532.828 273.878 534.653 272.053L530.41 267.811ZM524.767 276.254C523.36 279.471 522.668 282.919 522.668 286.564H528.668C528.668 283.697 529.208 281.073 530.264 278.658L524.767 276.254ZM522.668 286.564V315.34H528.668V286.564H522.668ZM522.668 315.34C522.668 318.985 523.36 322.465 524.754 325.752L530.277 323.408C529.208 320.887 528.668 318.207 528.668 315.34H522.668ZM524.767 325.782C526.145 328.931 528.026 331.709 530.41 334.093L534.653 329.851C532.813 328.011 531.351 325.861 530.264 323.378L524.767 325.782ZM530.454 334.136C532.911 336.495 535.716 338.364 538.853 339.736L541.258 334.24C538.763 333.148 536.552 331.673 534.609 329.808L530.454 334.136ZM538.884 339.75C542.171 341.144 545.65 341.836 549.296 341.836V335.836C546.429 335.836 543.749 335.296 541.227 334.226L538.884 339.75ZM549.296 341.836C554.369 341.836 559.073 340.433 563.341 337.654L560.067 332.626C556.766 334.775 553.199 335.836 549.296 335.836V341.836ZM563.381 337.627C567.576 334.798 570.968 331.052 573.558 326.447L568.329 323.505C566.167 327.348 563.399 330.378 560.026 332.653L563.381 337.627ZM569.481 327.595L579.645 333.271L582.57 328.033L572.406 322.357L569.481 327.595ZM578.522 329.131C575.225 334.735 571.011 339.183 565.875 342.526L569.148 347.554C575.1 343.681 579.95 338.537 583.693 332.173L578.522 329.131ZM565.904 342.507C560.843 345.72 555.329 347.32 549.296 347.32V353.32C556.462 353.32 563.092 351.4 569.12 347.573L565.904 342.507ZM549.296 347.32C544.849 347.32 540.676 346.473 536.749 344.791L534.386 350.305C539.083 352.319 544.062 353.32 549.296 353.32V347.32ZM536.77 344.8C532.879 343.097 529.497 340.798 526.601 337.903L522.358 342.145C525.799 345.586 529.809 348.303 534.365 350.296L536.77 344.8ZM526.601 337.903C523.705 335.007 521.407 331.625 519.704 327.734L514.207 330.138C516.201 334.695 518.918 338.705 522.358 342.145L526.601 337.903ZM519.704 327.734C518.03 323.908 517.184 319.787 517.184 315.34H511.184C511.184 320.573 512.185 325.516 514.207 330.138L519.704 327.734ZM517.184 315.34V286.564H511.184V315.34H517.184ZM517.184 286.564C517.184 282.117 518.03 277.996 519.704 274.17L514.207 271.766C512.185 276.388 511.184 281.331 511.184 286.564H517.184ZM519.713 274.15C521.418 270.172 523.715 266.755 526.601 263.869L522.358 259.627C518.908 263.077 516.189 267.14 514.198 271.786L519.713 274.15ZM526.601 263.869C529.497 260.974 532.879 258.675 536.77 256.972L534.365 251.476C529.809 253.469 525.799 256.186 522.358 259.627L526.601 263.869ZM536.749 256.981C540.676 255.299 544.849 254.452 549.296 254.452V248.452C544.062 248.452 539.083 249.453 534.386 251.467L536.749 256.981Z" fill="url(#paint8_linear_1_42)" mask="url(#path-13-outside-1_1_42)"/>
<mask id="path-15-outside-2_1_42" maskUnits="userSpaceOnUse" x="606" y="116" width="375" height="238" fill="black">
<rect fill="white" x="606" y="116" width="375" height="238"/>
<path d="M609.132 120.64H668.928V132.256H620.616V163.012H662.856V174.628H620.616V205.516H668.928V217H609.132V120.64ZM762.905 154.696C762.905 151.44 762.289 148.404 761.057 145.588C759.825 142.684 758.109 140.176 755.909 138.064C753.797 135.864 751.289 134.148 748.385 132.916C745.569 131.684 742.533 131.068 739.277 131.068C736.021 131.068 732.941 131.684 730.037 132.916C727.221 134.148 724.713 135.864 722.513 138.064C720.401 140.176 718.729 142.684 717.497 145.588C716.265 148.404 715.649 151.44 715.649 154.696V170.668H762.905V154.696ZM715.649 182.152V217H704.033V154.696C704.033 149.856 704.957 145.324 706.805 141.1C708.653 136.788 711.161 133.048 714.329 129.88C717.497 126.712 721.193 124.204 725.417 122.356C729.729 120.508 734.349 119.584 739.277 119.584C744.117 119.584 748.649 120.508 752.873 122.356C757.185 124.204 760.925 126.712 764.093 129.88C767.261 133.048 769.769 136.788 771.617 141.1C773.465 145.324 774.389 149.856 774.389 154.696V217H762.905V182.152H715.649ZM811.045 120.64H843.781C847.477 120.64 850.953 121.344 854.209 122.752C857.553 124.16 860.413 126.096 862.789 128.56C865.253 131.024 867.189 133.884 868.597 137.14C870.005 140.396 870.709 143.916 870.709 147.7C870.709 150.78 870.225 153.684 869.257 156.412C868.377 159.14 867.101 161.648 865.429 163.936C863.757 166.136 861.777 168.072 859.489 169.744C857.201 171.416 854.693 172.648 851.965 173.44C853.461 176.872 855.001 180.48 856.585 184.264C858.169 187.96 859.753 191.7 861.337 195.484C862.921 199.18 864.505 202.876 866.089 206.572C867.673 210.268 869.169 213.744 870.577 217H858.169L839.953 174.628H822.529V217H811.045V120.64ZM822.529 163.012H843.781C845.893 163.012 847.873 162.616 849.721 161.824C851.657 161.032 853.329 159.932 854.737 158.524C856.145 157.116 857.245 155.488 858.037 153.64C858.829 151.792 859.225 149.812 859.225 147.7C859.225 145.588 858.829 143.608 858.037 141.76C857.245 139.824 856.145 138.152 854.737 136.744C853.329 135.336 851.657 134.236 849.721 133.444C847.873 132.652 845.893 132.256 843.781 132.256H822.529V163.012ZM965.864 154.696C965.864 151.44 965.248 148.404 964.016 145.588C962.784 142.684 961.068 140.176 958.868 138.064C956.756 135.864 954.248 134.148 951.344 132.916C948.528 131.684 945.492 131.068 942.236 131.068C938.98 131.068 935.9 131.684 932.996 132.916C930.18 134.148 927.672 135.864 925.472 138.064C923.36 140.176 921.688 142.684 920.456 145.588C919.224 148.404 918.608 151.44 918.608 154.696V217H907.124V154.696C907.124 149.856 908.048 145.324 909.896 141.1C911.744 136.788 914.252 133.048 917.42 129.88C920.588 126.712 924.284 124.204 928.508 122.356C932.82 120.508 937.396 119.584 942.236 119.584C947.076 119.584 951.608 120.508 955.832 122.356C960.144 124.204 963.884 126.712 967.052 129.88C970.22 133.048 972.728 136.788 974.576 141.1C976.424 145.324 977.348 149.856 977.348 154.696V217H965.864V154.696ZM609.264 252.772H620.748V337.516H672.36V349H609.264V252.772ZM773.529 315.34C773.529 320.18 772.605 324.712 770.757 328.936C768.909 333.16 766.401 336.856 763.233 340.024C760.065 343.192 756.325 345.7 752.013 347.548C747.789 349.396 743.257 350.32 738.417 350.32C733.489 350.32 728.869 349.396 724.557 347.548C720.333 345.7 716.637 343.192 713.469 340.024C710.301 336.856 707.793 333.16 705.945 328.936C704.097 324.712 703.173 320.18 703.173 315.34V286.564C703.173 281.724 704.097 277.192 705.945 272.968C707.793 268.656 710.301 264.916 713.469 261.748C716.637 258.58 720.333 256.072 724.557 254.224C728.869 252.376 733.489 251.452 738.417 251.452C743.257 251.452 747.789 252.376 752.013 254.224C756.325 256.072 760.065 258.58 763.233 261.748C766.401 264.916 768.909 268.656 770.757 272.968C772.605 277.192 773.529 281.724 773.529 286.564V315.34ZM762.045 286.564C762.045 283.308 761.429 280.272 760.197 277.456C758.965 274.552 757.249 272.044 755.049 269.932C752.937 267.732 750.429 266.016 747.525 264.784C744.709 263.552 741.673 262.936 738.417 262.936C735.161 262.936 732.081 263.552 729.177 264.784C726.361 266.016 723.853 267.732 721.653 269.932C719.541 272.044 717.869 274.552 716.637 277.456C715.405 280.272 714.789 283.308 714.789 286.564V315.34C714.789 318.596 715.405 321.676 716.637 324.58C717.869 327.396 719.541 329.86 721.653 331.972C723.853 334.084 726.361 335.756 729.177 336.988C732.081 338.22 735.161 338.836 738.417 338.836C741.673 338.836 744.709 338.22 747.525 336.988C750.429 335.756 752.937 334.084 755.049 331.972C757.249 329.86 758.965 327.396 760.197 324.58C761.429 321.676 762.045 318.596 762.045 315.34V286.564ZM875.706 314.944C875.706 319.784 874.782 324.36 872.934 328.672C871.086 332.896 868.578 336.592 865.41 339.76C862.242 342.928 858.502 345.436 854.19 347.284C849.966 349.132 845.434 350.056 840.594 350.056C835.666 350.056 831.046 349.132 826.734 347.284C822.51 345.436 818.814 342.928 815.646 339.76C812.478 336.592 809.97 332.896 808.122 328.672C806.274 324.36 805.35 319.784 805.35 314.944V252.64H816.966V314.944C816.966 318.2 817.582 321.28 818.814 324.184C820.046 327 821.718 329.508 823.83 331.708C826.03 333.82 828.538 335.492 831.354 336.724C834.258 337.956 837.338 338.572 840.594 338.572C843.85 338.572 846.886 337.956 849.702 336.724C852.606 335.492 855.114 333.82 857.226 331.708C859.426 329.508 861.142 327 862.374 324.184C863.606 321.28 864.222 318.2 864.222 314.944V252.64H875.706V314.944ZM919.653 337.648H940.905C944.161 337.648 947.197 337.032 950.013 335.8C952.917 334.568 955.425 332.896 957.537 330.784C959.737 328.584 961.453 326.076 962.685 323.26C963.917 320.356 964.533 317.276 964.533 314.02V287.884C964.533 284.628 963.917 281.592 962.685 278.776C961.453 275.872 959.737 273.364 957.537 271.252C955.425 269.14 952.917 267.468 950.013 266.236C947.197 265.004 944.161 264.388 940.905 264.388H919.653V337.648ZM908.169 348.736V252.772H940.905C945.745 252.772 950.277 253.696 954.501 255.544C958.813 257.392 962.553 259.9 965.721 263.068C968.889 266.236 971.397 269.976 973.245 274.288C975.093 278.512 976.017 283.044 976.017 287.884V314.02C976.017 318.86 975.093 323.436 973.245 327.748C971.397 331.972 968.889 335.668 965.721 338.836C962.553 342.004 958.813 344.512 954.501 346.36C950.277 348.208 945.745 349.132 940.905 349.132L908.169 348.736Z"/>
</mask>
<path d="M609.132 120.64H668.928V132.256H620.616V163.012H662.856V174.628H620.616V205.516H668.928V217H609.132V120.64ZM762.905 154.696C762.905 151.44 762.289 148.404 761.057 145.588C759.825 142.684 758.109 140.176 755.909 138.064C753.797 135.864 751.289 134.148 748.385 132.916C745.569 131.684 742.533 131.068 739.277 131.068C736.021 131.068 732.941 131.684 730.037 132.916C727.221 134.148 724.713 135.864 722.513 138.064C720.401 140.176 718.729 142.684 717.497 145.588C716.265 148.404 715.649 151.44 715.649 154.696V170.668H762.905V154.696ZM715.649 182.152V217H704.033V154.696C704.033 149.856 704.957 145.324 706.805 141.1C708.653 136.788 711.161 133.048 714.329 129.88C717.497 126.712 721.193 124.204 725.417 122.356C729.729 120.508 734.349 119.584 739.277 119.584C744.117 119.584 748.649 120.508 752.873 122.356C757.185 124.204 760.925 126.712 764.093 129.88C767.261 133.048 769.769 136.788 771.617 141.1C773.465 145.324 774.389 149.856 774.389 154.696V217H762.905V182.152H715.649ZM811.045 120.64H843.781C847.477 120.64 850.953 121.344 854.209 122.752C857.553 124.16 860.413 126.096 862.789 128.56C865.253 131.024 867.189 133.884 868.597 137.14C870.005 140.396 870.709 143.916 870.709 147.7C870.709 150.78 870.225 153.684 869.257 156.412C868.377 159.14 867.101 161.648 865.429 163.936C863.757 166.136 861.777 168.072 859.489 169.744C857.201 171.416 854.693 172.648 851.965 173.44C853.461 176.872 855.001 180.48 856.585 184.264C858.169 187.96 859.753 191.7 861.337 195.484C862.921 199.18 864.505 202.876 866.089 206.572C867.673 210.268 869.169 213.744 870.577 217H858.169L839.953 174.628H822.529V217H811.045V120.64ZM822.529 163.012H843.781C845.893 163.012 847.873 162.616 849.721 161.824C851.657 161.032 853.329 159.932 854.737 158.524C856.145 157.116 857.245 155.488 858.037 153.64C858.829 151.792 859.225 149.812 859.225 147.7C859.225 145.588 858.829 143.608 858.037 141.76C857.245 139.824 856.145 138.152 854.737 136.744C853.329 135.336 851.657 134.236 849.721 133.444C847.873 132.652 845.893 132.256 843.781 132.256H822.529V163.012ZM965.864 154.696C965.864 151.44 965.248 148.404 964.016 145.588C962.784 142.684 961.068 140.176 958.868 138.064C956.756 135.864 954.248 134.148 951.344 132.916C948.528 131.684 945.492 131.068 942.236 131.068C938.98 131.068 935.9 131.684 932.996 132.916C930.18 134.148 927.672 135.864 925.472 138.064C923.36 140.176 921.688 142.684 920.456 145.588C919.224 148.404 918.608 151.44 918.608 154.696V217H907.124V154.696C907.124 149.856 908.048 145.324 909.896 141.1C911.744 136.788 914.252 133.048 917.42 129.88C920.588 126.712 924.284 124.204 928.508 122.356C932.82 120.508 937.396 119.584 942.236 119.584C947.076 119.584 951.608 120.508 955.832 122.356C960.144 124.204 963.884 126.712 967.052 129.88C970.22 133.048 972.728 136.788 974.576 141.1C976.424 145.324 977.348 149.856 977.348 154.696V217H965.864V154.696ZM609.264 252.772H620.748V337.516H672.36V349H609.264V252.772ZM773.529 315.34C773.529 320.18 772.605 324.712 770.757 328.936C768.909 333.16 766.401 336.856 763.233 340.024C760.065 343.192 756.325 345.7 752.013 347.548C747.789 349.396 743.257 350.32 738.417 350.32C733.489 350.32 728.869 349.396 724.557 347.548C720.333 345.7 716.637 343.192 713.469 340.024C710.301 336.856 707.793 333.16 705.945 328.936C704.097 324.712 703.173 320.18 703.173 315.34V286.564C703.173 281.724 704.097 277.192 705.945 272.968C707.793 268.656 710.301 264.916 713.469 261.748C716.637 258.58 720.333 256.072 724.557 254.224C728.869 252.376 733.489 251.452 738.417 251.452C743.257 251.452 747.789 252.376 752.013 254.224C756.325 256.072 760.065 258.58 763.233 261.748C766.401 264.916 768.909 268.656 770.757 272.968C772.605 277.192 773.529 281.724 773.529 286.564V315.34ZM762.045 286.564C762.045 283.308 761.429 280.272 760.197 277.456C758.965 274.552 757.249 272.044 755.049 269.932C752.937 267.732 750.429 266.016 747.525 264.784C744.709 263.552 741.673 262.936 738.417 262.936C735.161 262.936 732.081 263.552 729.177 264.784C726.361 266.016 723.853 267.732 721.653 269.932C719.541 272.044 717.869 274.552 716.637 277.456C715.405 280.272 714.789 283.308 714.789 286.564V315.34C714.789 318.596 715.405 321.676 716.637 324.58C717.869 327.396 719.541 329.86 721.653 331.972C723.853 334.084 726.361 335.756 729.177 336.988C732.081 338.22 735.161 338.836 738.417 338.836C741.673 338.836 744.709 338.22 747.525 336.988C750.429 335.756 752.937 334.084 755.049 331.972C757.249 329.86 758.965 327.396 760.197 324.58C761.429 321.676 762.045 318.596 762.045 315.34V286.564ZM875.706 314.944C875.706 319.784 874.782 324.36 872.934 328.672C871.086 332.896 868.578 336.592 865.41 339.76C862.242 342.928 858.502 345.436 854.19 347.284C849.966 349.132 845.434 350.056 840.594 350.056C835.666 350.056 831.046 349.132 826.734 347.284C822.51 345.436 818.814 342.928 815.646 339.76C812.478 336.592 809.97 332.896 808.122 328.672C806.274 324.36 805.35 319.784 805.35 314.944V252.64H816.966V314.944C816.966 318.2 817.582 321.28 818.814 324.184C820.046 327 821.718 329.508 823.83 331.708C826.03 333.82 828.538 335.492 831.354 336.724C834.258 337.956 837.338 338.572 840.594 338.572C843.85 338.572 846.886 337.956 849.702 336.724C852.606 335.492 855.114 333.82 857.226 331.708C859.426 329.508 861.142 327 862.374 324.184C863.606 321.28 864.222 318.2 864.222 314.944V252.64H875.706V314.944ZM919.653 337.648H940.905C944.161 337.648 947.197 337.032 950.013 335.8C952.917 334.568 955.425 332.896 957.537 330.784C959.737 328.584 961.453 326.076 962.685 323.26C963.917 320.356 964.533 317.276 964.533 314.02V287.884C964.533 284.628 963.917 281.592 962.685 278.776C961.453 275.872 959.737 273.364 957.537 271.252C955.425 269.14 952.917 267.468 950.013 266.236C947.197 265.004 944.161 264.388 940.905 264.388H919.653V337.648ZM908.169 348.736V252.772H940.905C945.745 252.772 950.277 253.696 954.501 255.544C958.813 257.392 962.553 259.9 965.721 263.068C968.889 266.236 971.397 269.976 973.245 274.288C975.093 278.512 976.017 283.044 976.017 287.884V314.02C976.017 318.86 975.093 323.436 973.245 327.748C971.397 331.972 968.889 335.668 965.721 338.836C962.553 342.004 958.813 344.512 954.501 346.36C950.277 348.208 945.745 349.132 940.905 349.132L908.169 348.736Z" fill="url(#paint9_linear_1_42)"/>
<path d="M609.132 120.64V117.64H606.132V120.64H609.132ZM668.928 120.64H671.928V117.64H668.928V120.64ZM668.928 132.256V135.256H671.928V132.256H668.928ZM620.616 132.256V129.256H617.616V132.256H620.616ZM620.616 163.012H617.616V166.012H620.616V163.012ZM662.856 163.012H665.856V160.012H662.856V163.012ZM662.856 174.628V177.628H665.856V174.628H662.856ZM620.616 174.628V171.628H617.616V174.628H620.616ZM620.616 205.516H617.616V208.516H620.616V205.516ZM668.928 205.516H671.928V202.516H668.928V205.516ZM668.928 217V220H671.928V217H668.928ZM609.132 217H606.132V220H609.132V217ZM609.132 123.64H668.928V117.64H609.132V123.64ZM665.928 120.64V132.256H671.928V120.64H665.928ZM668.928 129.256H620.616V135.256H668.928V129.256ZM617.616 132.256V163.012H623.616V132.256H617.616ZM620.616 166.012H662.856V160.012H620.616V166.012ZM659.856 163.012V174.628H665.856V163.012H659.856ZM662.856 171.628H620.616V177.628H662.856V171.628ZM617.616 174.628V205.516H623.616V174.628H617.616ZM620.616 208.516H668.928V202.516H620.616V208.516ZM665.928 205.516V217H671.928V205.516H665.928ZM668.928 214H609.132V220H668.928V214ZM612.132 217V120.64H606.132V217H612.132ZM761.057 145.588L758.295 146.76L758.302 146.775L758.308 146.79L761.057 145.588ZM755.909 138.064L753.745 140.142L753.787 140.186L753.831 140.228L755.909 138.064ZM748.385 132.916L747.182 135.664L747.198 135.671L747.213 135.678L748.385 132.916ZM730.037 132.916L728.865 130.154L728.85 130.161L728.834 130.168L730.037 132.916ZM722.513 138.064L720.391 135.943L720.391 135.943L722.513 138.064ZM717.497 145.588L720.245 146.79L720.252 146.775L720.259 146.76L717.497 145.588ZM715.649 170.668H712.649V173.668H715.649V170.668ZM762.905 170.668V173.668H765.905V170.668H762.905ZM715.649 182.152V179.152H712.649V182.152H715.649ZM715.649 217V220H718.649V217H715.649ZM704.033 217H701.033V220H704.033V217ZM706.805 141.1L709.553 142.302L709.558 142.292L709.562 142.282L706.805 141.1ZM714.329 129.88L716.45 132.001L716.45 132.001L714.329 129.88ZM725.417 122.356L724.235 119.599L724.225 119.603L724.214 119.608L725.417 122.356ZM752.873 122.356L751.67 125.104L751.681 125.109L751.691 125.113L752.873 122.356ZM764.093 129.88L766.214 127.759L766.214 127.759L764.093 129.88ZM771.617 141.1L768.859 142.282L768.864 142.292L768.868 142.302L771.617 141.1ZM774.389 217V220H777.389V217H774.389ZM762.905 217H759.905V220H762.905V217ZM762.905 182.152H765.905V179.152H762.905V182.152ZM765.905 154.696C765.905 151.051 765.213 147.603 763.805 144.386L758.308 146.79C759.365 149.205 759.905 151.829 759.905 154.696H765.905ZM763.819 144.416C762.434 141.152 760.489 138.303 757.986 135.9L753.831 140.228C755.728 142.049 757.216 144.216 758.295 146.76L763.819 144.416ZM758.073 135.986C755.67 133.483 752.821 131.539 749.556 130.154L747.213 135.678C749.757 136.757 751.923 138.245 753.745 140.142L758.073 135.986ZM749.587 130.168C746.37 128.76 742.922 128.068 739.277 128.068V134.068C742.144 134.068 744.768 134.608 747.182 135.664L749.587 130.168ZM739.277 128.068C735.631 128.068 732.152 128.76 728.865 130.154L731.208 135.678C733.73 134.608 736.41 134.068 739.277 134.068V128.068ZM728.834 130.168C725.671 131.551 722.853 133.481 720.391 135.943L724.634 140.185C726.573 138.247 728.77 136.745 731.239 135.664L728.834 130.168ZM720.391 135.943C717.992 138.342 716.109 141.178 714.735 144.416L720.259 146.76C721.349 144.19 722.81 142.01 724.634 140.185L720.391 135.943ZM714.748 144.386C713.341 147.603 712.649 151.051 712.649 154.696H718.649C718.649 151.829 719.189 149.205 720.245 146.79L714.748 144.386ZM712.649 154.696V170.668H718.649V154.696H712.649ZM715.649 173.668H762.905V167.668H715.649V173.668ZM765.905 170.668V154.696H759.905V170.668H765.905ZM712.649 182.152V217H718.649V182.152H712.649ZM715.649 214H704.033V220H715.649V214ZM707.033 217V154.696H701.033V217H707.033ZM707.033 154.696C707.033 150.249 707.879 146.128 709.553 142.302L704.056 139.898C702.034 144.52 701.033 149.463 701.033 154.696H707.033ZM709.562 142.282C711.267 138.304 713.565 134.887 716.45 132.001L712.207 127.759C708.757 131.209 706.038 135.272 704.047 139.918L709.562 142.282ZM716.45 132.001C719.346 129.106 722.728 126.807 726.619 125.104L724.214 119.608C719.658 121.601 715.648 124.318 712.207 127.759L716.45 132.001ZM726.599 125.113C730.518 123.433 734.734 122.584 739.277 122.584V116.584C733.963 116.584 728.939 117.582 724.235 119.599L726.599 125.113ZM739.277 122.584C743.724 122.584 747.844 123.431 751.67 125.104L754.075 119.608C749.453 117.585 744.51 116.584 739.277 116.584V122.584ZM751.691 125.113C755.669 126.818 759.086 129.116 761.971 132.001L766.214 127.759C762.764 124.308 758.701 121.59 754.055 119.599L751.691 125.113ZM761.971 132.001C764.857 134.887 767.154 138.304 768.859 142.282L774.374 139.918C772.383 135.272 769.665 131.209 766.214 127.759L761.971 132.001ZM768.868 142.302C770.542 146.128 771.389 150.249 771.389 154.696H777.389C777.389 149.463 776.387 144.519 774.365 139.898L768.868 142.302ZM771.389 154.696V217H777.389V154.696H771.389ZM774.389 214H762.905V220H774.389V214ZM765.905 217V182.152H759.905V217H765.905ZM762.905 179.152H715.649V185.152H762.905V179.152ZM811.045 120.64V117.64H808.045V120.64H811.045ZM854.209 122.752L853.018 125.506L853.031 125.511L853.044 125.517L854.209 122.752ZM862.789 128.56L860.629 130.642L860.648 130.662L860.667 130.681L862.789 128.56ZM869.257 156.412L866.429 155.409L866.415 155.45L866.401 155.491L869.257 156.412ZM865.429 163.936L867.817 165.751L867.834 165.729L867.851 165.706L865.429 163.936ZM859.489 169.744L861.259 172.166L861.259 172.166L859.489 169.744ZM851.965 173.44L851.128 170.559L847.851 171.51L849.214 174.639L851.965 173.44ZM856.585 184.264L853.817 185.422L853.822 185.434L853.827 185.446L856.585 184.264ZM861.337 195.484L858.569 196.642L858.574 196.654L858.579 196.666L861.337 195.484ZM866.089 206.572L863.331 207.754L863.331 207.754L866.089 206.572ZM870.577 217V220H875.142L873.33 215.809L870.577 217ZM858.169 217L855.412 218.185L856.193 220H858.169V217ZM839.953 174.628L842.709 173.443L841.928 171.628H839.953V174.628ZM822.529 174.628V171.628H819.529V174.628H822.529ZM822.529 217V220H825.529V217H822.529ZM811.045 217H808.045V220H811.045V217ZM822.529 163.012H819.529V166.012H822.529V163.012ZM849.721 161.824L848.585 159.047L848.562 159.057L848.539 159.067L849.721 161.824ZM858.037 153.64L860.794 154.822L860.794 154.822L858.037 153.64ZM858.037 141.76L855.26 142.896L855.269 142.919L855.279 142.942L858.037 141.76ZM854.737 136.744L856.858 134.623L856.858 134.623L854.737 136.744ZM849.721 133.444L848.539 136.201L848.562 136.211L848.585 136.221L849.721 133.444ZM822.529 132.256V129.256H819.529V132.256H822.529ZM811.045 123.64H843.781V117.64H811.045V123.64ZM843.781 123.64C847.085 123.64 850.154 124.267 853.018 125.506L855.399 119.998C851.752 118.421 847.869 117.64 843.781 117.64V123.64ZM853.044 125.517C856.037 126.777 858.552 128.488 860.629 130.642L864.948 126.478C862.273 123.704 859.068 121.543 855.373 119.987L853.044 125.517ZM860.667 130.681C862.859 132.873 864.582 135.416 865.843 138.331L871.35 135.949C869.795 132.352 867.646 129.175 864.91 126.439L860.667 130.681ZM865.843 138.331C867.078 141.186 867.709 144.298 867.709 147.7H873.709C873.709 143.534 872.931 139.606 871.35 135.949L865.843 138.331ZM867.709 147.7C867.709 150.46 867.276 153.023 866.429 155.409L872.084 157.415C873.173 154.345 873.709 151.1 873.709 147.7H867.709ZM866.401 155.491C865.618 157.918 864.488 160.139 863.006 162.166L867.851 165.706C869.714 163.157 871.135 160.362 872.112 157.333L866.401 155.491ZM863.04 162.121C861.548 164.084 859.778 165.817 857.719 167.322L861.259 172.166C863.775 170.327 865.965 168.188 867.817 165.751L863.04 162.121ZM857.719 167.322C855.713 168.787 853.521 169.864 851.128 170.559L852.801 176.321C855.864 175.432 858.688 174.045 861.259 172.166L857.719 167.322ZM849.214 174.639C850.704 178.056 852.238 181.651 853.817 185.422L859.352 183.106C857.763 179.309 856.217 175.688 854.715 172.241L849.214 174.639ZM853.827 185.446C855.408 189.134 856.988 192.866 858.569 196.642L864.104 194.326C862.517 190.534 860.929 186.786 859.342 183.082L853.827 185.446ZM858.579 196.666C860.163 200.362 861.747 204.058 863.331 207.754L868.846 205.39C867.262 201.694 865.678 197.998 864.094 194.302L858.579 196.666ZM863.331 207.754C864.916 211.452 866.414 214.931 867.823 218.191L873.33 215.809C871.924 212.557 870.429 209.084 868.846 205.39L863.331 207.754ZM870.577 214H858.169V220H870.577V214ZM860.925 215.815L842.709 173.443L837.196 175.813L855.412 218.185L860.925 215.815ZM839.953 171.628H822.529V177.628H839.953V171.628ZM819.529 174.628V217H825.529V174.628H819.529ZM822.529 214H811.045V220H822.529V214ZM814.045 217V120.64H808.045V217H814.045ZM822.529 166.012H843.781V160.012H822.529V166.012ZM843.781 166.012C846.278 166.012 848.662 165.541 850.902 164.581L848.539 159.067C847.083 159.69 845.507 160.012 843.781 160.012V166.012ZM850.856 164.601C853.142 163.666 855.154 162.349 856.858 160.645L852.615 156.403C851.503 157.515 850.171 158.398 848.585 159.047L850.856 164.601ZM856.858 160.645C858.538 158.965 859.853 157.017 860.794 154.822L855.279 152.458C854.636 153.959 853.751 155.267 852.615 156.403L856.858 160.645ZM860.794 154.822C861.754 152.582 862.225 150.197 862.225 147.7H856.225C856.225 149.427 855.903 151.002 855.279 152.458L860.794 154.822ZM862.225 147.7C862.225 145.203 861.754 142.818 860.794 140.578L855.279 142.942C855.903 144.398 856.225 145.973 856.225 147.7H862.225ZM860.813 140.624C859.878 138.338 858.562 136.326 856.858 134.623L852.615 138.865C853.727 139.977 854.611 141.31 855.26 142.896L860.813 140.624ZM856.858 134.623C855.154 132.919 853.142 131.602 850.856 130.667L848.585 136.221C850.171 136.87 851.503 137.753 852.615 138.865L856.858 134.623ZM850.902 130.687C848.662 129.726 846.278 129.256 843.781 129.256V135.256C845.507 135.256 847.083 135.577 848.539 136.201L850.902 130.687ZM843.781 129.256H822.529V135.256H843.781V129.256ZM819.529 132.256V163.012H825.529V132.256H819.529ZM964.016 145.588L961.254 146.76L961.261 146.775L961.268 146.79L964.016 145.588ZM958.868 138.064L956.704 140.142L956.746 140.186L956.79 140.228L958.868 138.064ZM951.344 132.916L950.142 135.664L950.157 135.671L950.172 135.678L951.344 132.916ZM932.996 132.916L931.824 130.154L931.809 130.161L931.794 130.168L932.996 132.916ZM925.472 138.064L923.351 135.943L923.351 135.943L925.472 138.064ZM920.456 145.588L923.205 146.79L923.211 146.775L923.218 146.76L920.456 145.588ZM918.608 217V220H921.608V217H918.608ZM907.124 217H904.124V220H907.124V217ZM909.896 141.1L912.645 142.302L912.649 142.292L912.653 142.282L909.896 141.1ZM917.42 129.88L919.541 132.001L919.541 132.001L917.42 129.88ZM928.508 122.356L927.326 119.599L927.316 119.603L927.306 119.608L928.508 122.356ZM955.832 122.356L954.63 125.104L954.64 125.109L954.65 125.113L955.832 122.356ZM974.576 141.1L971.819 142.282L971.823 142.292L971.828 142.302L974.576 141.1ZM977.348 217V220H980.348V217H977.348ZM965.864 217H962.864V220H965.864V217ZM968.864 154.696C968.864 151.051 968.172 147.603 966.765 144.386L961.268 146.79C962.324 149.205 962.864 151.829 962.864 154.696H968.864ZM966.778 144.416C965.393 141.152 963.449 138.303 960.946 135.9L956.79 140.228C958.687 142.049 960.175 144.216 961.254 146.76L966.778 144.416ZM961.032 135.986C958.629 133.483 955.78 131.539 952.516 130.154L950.172 135.678C952.716 136.757 954.883 138.245 956.704 140.142L961.032 135.986ZM952.547 130.168C949.329 128.76 945.881 128.068 942.236 128.068V134.068C945.103 134.068 947.727 134.608 950.142 135.664L952.547 130.168ZM942.236 128.068C938.591 128.068 935.111 128.76 931.824 130.154L934.168 135.678C936.689 134.608 939.369 134.068 942.236 134.068V128.068ZM931.794 130.168C928.631 131.551 925.812 133.481 923.351 135.943L927.593 140.185C929.532 138.247 931.729 136.745 934.199 135.664L931.794 130.168ZM923.351 135.943C920.951 138.342 919.068 141.178 917.694 144.416L923.218 146.76C924.308 144.19 925.769 142.01 927.593 140.185L923.351 135.943ZM917.708 144.386C916.3 147.603 915.608 151.051 915.608 154.696H921.608C921.608 151.829 922.148 149.205 923.205 146.79L917.708 144.386ZM915.608 154.696V217H921.608V154.696H915.608ZM918.608 214H907.124V220H918.608V214ZM910.124 217V154.696H904.124V217H910.124ZM910.124 154.696C910.124 150.249 910.971 146.128 912.645 142.302L907.148 139.898C905.125 144.52 904.124 149.463 904.124 154.696H910.124ZM912.653 142.282C914.358 138.304 916.656 134.887 919.541 132.001L915.299 127.759C911.848 131.209 909.13 135.272 907.139 139.918L912.653 142.282ZM919.541 132.001C922.437 129.106 925.819 126.807 929.711 125.104L927.306 119.608C922.749 121.601 918.739 124.318 915.299 127.759L919.541 132.001ZM929.69 125.113C933.616 123.431 937.789 122.584 942.236 122.584V116.584C937.003 116.584 932.024 117.585 927.326 119.599L929.69 125.113ZM942.236 122.584C946.683 122.584 950.804 123.431 954.63 125.104L957.035 119.608C952.413 117.585 947.469 116.584 942.236 116.584V122.584ZM954.65 125.113C958.628 126.818 962.045 129.116 964.931 132.001L969.173 127.759C965.723 124.308 961.66 121.59 957.014 119.599L954.65 125.113ZM964.931 132.001C967.816 134.887 970.114 138.304 971.819 142.282L977.333 139.918C975.342 135.272 972.624 131.209 969.173 127.759L964.931 132.001ZM971.828 142.302C973.501 146.128 974.348 150.249 974.348 154.696H980.348C980.348 149.463 979.347 144.52 977.325 139.898L971.828 142.302ZM974.348 154.696V217H980.348V154.696H974.348ZM977.348 214H965.864V220H977.348V214ZM968.864 217V154.696H962.864V217H968.864ZM609.264 252.772V249.772H606.264V252.772H609.264ZM620.748 252.772H623.748V249.772H620.748V252.772ZM620.748 337.516H617.748V340.516H620.748V337.516ZM672.36 337.516H675.36V334.516H672.36V337.516ZM672.36 349V352H675.36V349H672.36ZM609.264 349H606.264V352H609.264V349ZM609.264 255.772H620.748V249.772H609.264V255.772ZM617.748 252.772V337.516H623.748V252.772H617.748ZM620.748 340.516H672.36V334.516H620.748V340.516ZM669.36 337.516V349H675.36V337.516H669.36ZM672.36 346H609.264V352H672.36V346ZM612.264 349V252.772H606.264V349H612.264ZM770.757 328.936L773.505 330.138L773.505 330.138L770.757 328.936ZM763.233 340.024L761.111 337.903L761.111 337.903L763.233 340.024ZM752.013 347.548L750.831 344.791L750.821 344.795L750.81 344.8L752.013 347.548ZM724.557 347.548L723.354 350.296L723.365 350.301L723.375 350.305L724.557 347.548ZM713.469 340.024L715.59 337.903L715.59 337.903L713.469 340.024ZM705.945 328.936L708.693 327.734L708.693 327.734L705.945 328.936ZM705.945 272.968L708.693 274.17L708.698 274.16L708.702 274.15L705.945 272.968ZM713.469 261.748L715.59 263.869L715.59 263.869L713.469 261.748ZM724.557 254.224L723.375 251.467L723.365 251.471L723.354 251.476L724.557 254.224ZM752.013 254.224L750.81 256.972L750.821 256.977L750.831 256.981L752.013 254.224ZM763.233 261.748L761.111 263.869L761.111 263.869L763.233 261.748ZM770.757 272.968L767.999 274.15L768.004 274.16L768.008 274.17L770.757 272.968ZM760.197 277.456L757.435 278.628L757.442 278.643L757.448 278.658L760.197 277.456ZM755.049 269.932L752.885 272.01L752.927 272.054L752.971 272.096L755.049 269.932ZM747.525 264.784L746.322 267.532L746.338 267.539L746.353 267.546L747.525 264.784ZM729.177 264.784L728.005 262.022L727.99 262.029L727.974 262.036L729.177 264.784ZM721.653 269.932L723.774 272.053L721.653 269.932ZM716.637 277.456L719.385 278.658L719.392 278.643L719.398 278.628L716.637 277.456ZM716.637 324.58L713.875 325.752L713.882 325.767L713.888 325.782L716.637 324.58ZM721.653 331.972L719.531 334.093L719.553 334.115L719.575 334.136L721.653 331.972ZM729.177 336.988L727.974 339.736L727.99 339.743L728.005 339.75L729.177 336.988ZM747.525 336.988L746.353 334.226L746.338 334.233L746.322 334.24L747.525 336.988ZM755.049 331.972L752.971 329.808L752.949 329.829L752.927 329.851L755.049 331.972ZM760.197 324.58L762.945 325.782L762.952 325.767L762.958 325.752L760.197 324.58ZM770.529 315.34C770.529 319.787 769.682 323.908 768.008 327.734L773.505 330.138C775.527 325.516 776.529 320.573 776.529 315.34H770.529ZM768.008 327.734C766.306 331.625 764.007 335.007 761.111 337.903L765.354 342.145C768.794 338.705 771.512 334.695 773.505 330.138L768.008 327.734ZM761.111 337.903C758.226 340.788 754.809 343.086 750.831 344.791L753.194 350.305C757.84 348.314 761.904 345.596 765.354 342.145L761.111 337.903ZM750.81 344.8C746.984 346.473 742.864 347.32 738.417 347.32V353.32C743.65 353.32 748.593 352.319 753.215 350.296L750.81 344.8ZM738.417 347.32C733.874 347.32 729.658 346.47 725.738 344.791L723.375 350.305C728.079 352.322 733.103 353.32 738.417 353.32V347.32ZM725.759 344.8C721.868 343.097 718.486 340.798 715.59 337.903L711.347 342.145C714.788 345.586 718.798 348.303 723.354 350.296L725.759 344.8ZM715.59 337.903C712.694 335.007 710.396 331.625 708.693 327.734L703.196 330.138C705.19 334.695 707.907 338.705 711.347 342.145L715.59 337.903ZM708.693 327.734C707.019 323.908 706.173 319.787 706.173 315.34H700.173C700.173 320.573 701.174 325.516 703.196 330.138L708.693 327.734ZM706.173 315.34V286.564H700.173V315.34H706.173ZM706.173 286.564C706.173 282.117 707.019 277.996 708.693 274.17L703.196 271.766C701.174 276.388 700.173 281.331 700.173 286.564H706.173ZM708.702 274.15C710.407 270.172 712.705 266.755 715.59 263.869L711.347 259.627C707.897 263.077 705.178 267.14 703.187 271.786L708.702 274.15ZM715.59 263.869C718.486 260.974 721.868 258.675 725.759 256.972L723.354 251.476C718.798 253.469 714.788 256.186 711.347 259.627L715.59 263.869ZM725.738 256.981C729.658 255.301 733.874 254.452 738.417 254.452V248.452C733.103 248.452 728.079 249.45 723.375 251.467L725.738 256.981ZM738.417 254.452C742.864 254.452 746.984 255.299 750.81 256.972L753.215 251.476C748.593 249.453 743.65 248.452 738.417 248.452V254.452ZM750.831 256.981C754.809 258.686 758.226 260.984 761.111 263.869L765.354 259.627C761.904 256.176 757.84 253.458 753.194 251.467L750.831 256.981ZM761.111 263.869C763.997 266.755 766.294 270.172 767.999 274.15L773.514 271.786C771.523 267.14 768.805 263.077 765.354 259.627L761.111 263.869ZM768.008 274.17C769.682 277.996 770.529 282.117 770.529 286.564H776.529C776.529 281.331 775.527 276.388 773.505 271.766L768.008 274.17ZM770.529 286.564V315.34H776.529V286.564H770.529ZM765.045 286.564C765.045 282.919 764.353 279.471 762.945 276.254L757.448 278.658C758.505 281.073 759.045 283.697 759.045 286.564H765.045ZM762.958 276.284C761.573 273.02 759.629 270.171 757.126 267.768L752.971 272.096C754.868 273.917 756.356 276.084 757.435 278.628L762.958 276.284ZM757.213 267.854C754.81 265.351 751.961 263.407 748.696 262.022L746.353 267.546C748.896 268.625 751.063 270.113 752.885 272.01L757.213 267.854ZM748.727 262.036C745.51 260.628 742.062 259.936 738.417 259.936V265.936C741.284 265.936 743.908 266.476 746.322 267.532L748.727 262.036ZM738.417 259.936C734.771 259.936 731.292 260.628 728.005 262.022L730.348 267.546C732.87 266.476 735.55 265.936 738.417 265.936V259.936ZM727.974 262.036C724.811 263.419 721.993 265.349 719.531 267.811L723.774 272.053C725.713 270.115 727.91 268.613 730.379 267.532L727.974 262.036ZM719.531 267.811C717.132 270.21 715.249 273.046 713.875 276.284L719.398 278.628C720.489 276.058 721.95 273.878 723.774 272.053L719.531 267.811ZM713.888 276.254C712.481 279.471 711.789 282.919 711.789 286.564H717.789C717.789 283.697 718.329 281.073 719.385 278.658L713.888 276.254ZM711.789 286.564V315.34H717.789V286.564H711.789ZM711.789 315.34C711.789 318.985 712.481 322.465 713.875 325.752L719.398 323.408C718.329 320.887 717.789 318.207 717.789 315.34H711.789ZM713.888 325.782C715.266 328.931 717.147 331.709 719.531 334.093L723.774 329.851C721.934 328.011 720.472 325.861 719.385 323.378L713.888 325.782ZM719.575 334.136C722.032 336.495 724.837 338.364 727.974 339.736L730.379 334.24C727.884 333.148 725.673 331.673 723.73 329.808L719.575 334.136ZM728.005 339.75C731.292 341.144 734.771 341.836 738.417 341.836V335.836C735.55 335.836 732.87 335.296 730.348 334.226L728.005 339.75ZM738.417 341.836C742.062 341.836 745.51 341.144 748.727 339.736L746.322 334.24C743.908 335.296 741.284 335.836 738.417 335.836V341.836ZM748.696 339.75C751.935 338.376 754.77 336.493 757.17 334.093L752.927 329.851C751.103 331.675 748.923 333.136 746.353 334.226L748.696 339.75ZM757.126 334.136C759.613 331.749 761.556 328.957 762.945 325.782L757.448 323.378C756.373 325.835 754.884 327.971 752.971 329.808L757.126 334.136ZM762.958 325.752C764.353 322.465 765.045 318.985 765.045 315.34H759.045C759.045 318.207 758.505 320.887 757.435 323.408L762.958 325.752ZM765.045 315.34V286.564H759.045V315.34H765.045ZM872.934 328.672L875.682 329.874L875.687 329.864L875.691 329.854L872.934 328.672ZM865.41 339.76L863.289 337.639L863.289 337.639L865.41 339.76ZM854.19 347.284L853.008 344.527L852.998 344.531L852.988 344.536L854.19 347.284ZM826.734 347.284L825.532 350.032L825.542 350.037L825.552 350.041L826.734 347.284ZM815.646 339.76L813.525 341.881L813.525 341.881L815.646 339.76ZM808.122 328.672L805.365 329.854L805.369 329.864L805.374 329.874L808.122 328.672ZM805.35 252.64V249.64H802.35V252.64H805.35ZM816.966 252.64H819.966V249.64H816.966V252.64ZM818.814 324.184L816.052 325.356L816.059 325.371L816.066 325.386L818.814 324.184ZM823.83 331.708L821.666 333.786L821.708 333.83L821.752 333.872L823.83 331.708ZM831.354 336.724L830.152 339.472L830.167 339.479L830.182 339.486L831.354 336.724ZM849.702 336.724L848.53 333.962L848.515 333.969L848.5 333.976L849.702 336.724ZM857.226 331.708L855.105 329.587L855.105 329.587L857.226 331.708ZM862.374 324.184L865.122 325.386L865.129 325.371L865.136 325.356L862.374 324.184ZM864.222 252.64V249.64H861.222V252.64H864.222ZM875.706 252.64H878.706V249.64H875.706V252.64ZM872.706 314.944C872.706 319.391 871.859 323.564 870.177 327.49L875.691 329.854C877.705 325.156 878.706 320.177 878.706 314.944H872.706ZM870.186 327.47C868.483 331.361 866.184 334.743 863.289 337.639L867.531 341.881C870.972 338.441 873.689 334.431 875.682 329.874L870.186 327.47ZM863.289 337.639C860.403 340.524 856.986 342.822 853.008 344.527L855.372 350.041C860.018 348.05 864.081 345.332 867.531 341.881L863.289 337.639ZM852.988 344.536C849.162 346.209 845.041 347.056 840.594 347.056V353.056C845.827 353.056 850.771 352.055 855.392 350.032L852.988 344.536ZM840.594 347.056C836.051 347.056 831.836 346.206 827.916 344.527L825.552 350.041C830.256 352.058 835.281 353.056 840.594 353.056V347.056ZM827.936 344.536C824.045 342.833 820.663 340.534 817.767 337.639L813.525 341.881C816.965 345.322 820.975 348.039 825.532 350.032L827.936 344.536ZM817.767 337.639C814.872 334.743 812.573 331.361 810.87 327.47L805.374 329.874C807.367 334.431 810.084 338.441 813.525 341.881L817.767 337.639ZM810.879 327.49C809.197 323.564 808.35 319.391 808.35 314.944H802.35C802.35 320.177 803.351 325.156 805.365 329.854L810.879 327.49ZM808.35 314.944V252.64H802.35V314.944H808.35ZM805.35 255.64H816.966V249.64H805.35V255.64ZM813.966 252.64V314.944H819.966V252.64H813.966ZM813.966 314.944C813.966 318.589 814.658 322.069 816.052 325.356L821.576 323.012C820.506 320.491 819.966 317.811 819.966 314.944H813.966ZM816.066 325.386C817.438 328.524 819.307 331.329 821.666 333.786L825.994 329.63C824.129 327.687 822.654 325.476 821.562 322.982L816.066 325.386ZM821.752 333.872C824.209 336.231 827.014 338.1 830.152 339.472L832.556 333.976C830.062 332.884 827.851 331.409 825.908 329.544L821.752 333.872ZM830.182 339.486C833.469 340.88 836.949 341.572 840.594 341.572V335.572C837.727 335.572 835.047 335.032 832.526 333.962L830.182 339.486ZM840.594 341.572C844.239 341.572 847.687 340.88 850.904 339.472L848.5 333.976C846.085 335.032 843.461 335.572 840.594 335.572V341.572ZM850.874 339.486C854.112 338.112 856.948 336.229 859.347 333.829L855.105 329.587C853.28 331.411 851.1 332.872 848.53 333.962L850.874 339.486ZM859.347 333.829C861.809 331.368 863.739 328.549 865.122 325.386L859.626 322.982C858.545 325.451 857.043 327.648 855.105 329.587L859.347 333.829ZM865.136 325.356C866.53 322.069 867.222 318.589 867.222 314.944H861.222C861.222 317.811 860.682 320.491 859.612 323.012L865.136 325.356ZM867.222 314.944V252.64H861.222V314.944H867.222ZM864.222 255.64H875.706V249.64H864.222V255.64ZM872.706 252.64V314.944H878.706V252.64H872.706ZM919.653 337.648H916.653V340.648H919.653V337.648ZM950.013 335.8L948.841 333.038L948.826 333.045L948.81 333.052L950.013 335.8ZM957.537 330.784L959.658 332.905L959.658 332.905L957.537 330.784ZM962.685 323.26L965.433 324.462L965.44 324.447L965.446 324.432L962.685 323.26ZM962.685 278.776L959.923 279.948L959.93 279.963L959.936 279.978L962.685 278.776ZM957.537 271.252L955.415 273.373L955.437 273.395L955.459 273.416L957.537 271.252ZM950.013 266.236L948.81 268.984L948.826 268.991L948.841 268.998L950.013 266.236ZM919.653 264.388V261.388H916.653V264.388H919.653ZM908.169 348.736H905.169V351.7L908.132 351.736L908.169 348.736ZM908.169 252.772V249.772H905.169V252.772H908.169ZM954.501 255.544L953.298 258.292L953.309 258.297L953.319 258.301L954.501 255.544ZM965.721 263.068L963.599 265.189L963.599 265.189L965.721 263.068ZM973.245 274.288L970.487 275.47L970.492 275.48L970.496 275.49L973.245 274.288ZM973.245 327.748L975.993 328.95L975.998 328.94L976.002 328.93L973.245 327.748ZM965.721 338.836L963.599 336.715L963.599 336.715L965.721 338.836ZM954.501 346.36L953.319 343.603L953.309 343.607L953.298 343.612L954.501 346.36ZM940.905 349.132L940.868 352.132L940.887 352.132H940.905V349.132ZM919.653 340.648H940.905V334.648H919.653V340.648ZM940.905 340.648C944.55 340.648 947.998 339.956 951.215 338.548L948.81 333.052C946.396 334.108 943.772 334.648 940.905 334.648V340.648ZM951.184 338.562C954.423 337.188 957.258 335.305 959.658 332.905L955.415 328.663C953.591 330.487 951.411 331.948 948.841 333.038L951.184 338.562ZM959.658 332.905C962.119 330.444 964.049 327.625 965.433 324.462L959.936 322.058C958.856 324.527 957.354 326.724 955.415 328.663L959.658 332.905ZM965.446 324.432C966.841 321.145 967.533 317.665 967.533 314.02H961.533C961.533 316.887 960.993 319.567 959.923 322.088L965.446 324.432ZM967.533 314.02V287.884H961.533V314.02H967.533ZM967.533 287.884C967.533 284.239 966.841 280.791 965.433 277.574L959.936 279.978C960.993 282.393 961.533 285.017 961.533 287.884H967.533ZM965.446 277.604C964.061 274.34 962.117 271.491 959.614 269.088L955.459 273.416C957.356 275.237 958.844 277.404 959.923 279.948L965.446 277.604ZM959.658 269.131C957.258 266.731 954.423 264.848 951.184 263.474L948.841 268.998C951.411 270.088 953.591 271.549 955.415 273.373L959.658 269.131ZM951.215 263.488C947.998 262.08 944.55 261.388 940.905 261.388V267.388C943.772 267.388 946.396 267.928 948.81 268.984L951.215 263.488ZM940.905 261.388H919.653V267.388H940.905V261.388ZM916.653 264.388V337.648H922.653V264.388H916.653ZM911.169 348.736V252.772H905.169V348.736H911.169ZM908.169 255.772H940.905V249.772H908.169V255.772ZM940.905 255.772C945.352 255.772 949.472 256.619 953.298 258.292L955.703 252.796C951.081 250.773 946.138 249.772 940.905 249.772V255.772ZM953.319 258.301C957.297 260.006 960.714 262.304 963.599 265.189L967.842 260.947C964.392 257.496 960.328 254.778 955.682 252.787L953.319 258.301ZM963.599 265.189C966.485 268.075 968.782 271.492 970.487 275.47L976.002 273.106C974.011 268.46 971.293 264.397 967.842 260.947L963.599 265.189ZM970.496 275.49C972.17 279.316 973.017 283.437 973.017 287.884H979.017C979.017 282.651 978.015 277.707 975.993 273.086L970.496 275.49ZM973.017 287.884V314.02H979.017V287.884H973.017ZM973.017 314.02C973.017 318.467 972.17 322.64 970.487 326.566L976.002 328.93C978.015 324.232 979.017 319.253 979.017 314.02H973.017ZM970.496 326.546C968.794 330.437 966.495 333.819 963.599 336.715L967.842 340.957C971.282 337.517 974 333.507 975.993 328.95L970.496 326.546ZM963.599 336.715C960.714 339.6 957.297 341.898 953.319 343.603L955.682 349.117C960.328 347.126 964.392 344.408 967.842 340.957L963.599 336.715ZM953.298 343.612C949.472 345.285 945.352 346.132 940.905 346.132V352.132C946.138 352.132 951.081 351.131 955.703 349.108L953.298 343.612ZM940.941 346.132L908.205 345.736L908.132 351.736L940.868 352.132L940.941 346.132Z" fill="url(#paint10_linear_1_42)" mask="url(#path-15-outside-2_1_42)"/>
<defs>
<linearGradient id="paint0_linear_1_42" x1="0" y1="277.93" x2="450" y2="277.93" gradientUnits="userSpaceOnUse">
<stop stop-color="#00BFFE"/>
<stop offset="0.08" stop-color="#00A6FE"/>
<stop offset="0.2" stop-color="#0089FE"/>
<stop offset="0.32" stop-color="#0074FE"/>
<stop offset="0.44" stop-color="#0068FE"/>
<stop offset="0.55" stop-color="#0064FF"/>
<stop offset="0.63" stop-color="#006CFE"/>
<stop offset="0.76" stop-color="#0085FE"/>
<stop offset="0.93" stop-color="#00ACFE"/>
<stop offset="1" stop-color="#00BFFE"/>
</linearGradient>
<linearGradient id="paint1_linear_1_42" x1="254.501" y1="-0.000152358" x2="223.001" y2="110.5" gradientUnits="userSpaceOnUse">
<stop offset="0.0314519" stop-color="#FA8228"/>
<stop offset="0.42574" stop-color="#FA8228"/>
<stop offset="1" stop-color="#F29040" stop-opacity="0.7"/>
</linearGradient>
<linearGradient id="paint2_linear_1_42" x1="254.501" y1="-0.000152358" x2="223.001" y2="110.5" gradientUnits="userSpaceOnUse">
<stop offset="0.0314519" stop-color="#FA9046"/>
<stop offset="1" stop-color="#F29040" stop-opacity="0.7"/>
</linearGradient>
<linearGradient id="paint3_linear_1_42" x1="292.97" y1="129.605" x2="340.443" y2="20.6925" gradientUnits="userSpaceOnUse">
<stop stop-color="#FA8828" stop-opacity="0.4"/>
<stop offset="0.506462" stop-color="#FA8C32" stop-opacity="0.9"/>
<stop offset="1" stop-color="#FA8C32" stop-opacity="0.9"/>
</linearGradient>
<linearGradient id="paint4_linear_1_42" x1="187.601" y1="337.47" x2="235.381" y2="66.4699" gradientUnits="userSpaceOnUse">
<stop stop-color="#0064FF"/>
<stop offset="0.71" stop-color="#00BBFF"/>
</linearGradient>
<linearGradient id="paint5_linear_1_42" x1="66.3008" y1="233.45" x2="275.281" y2="233.45" gradientUnits="userSpaceOnUse">
<stop offset="0.43" stop-color="#00BFFE" stop-opacity="0.3"/>
<stop offset="0.9" stop-color="#0064FF" stop-opacity="0.3"/>
</linearGradient>
<linearGradient id="paint6_linear_1_42" x1="401.992" y1="179.665" x2="418.592" y2="176.987" gradientUnits="userSpaceOnUse">
<stop stop-color="#F29040"/>
<stop offset="1" stop-color="#F29040" stop-opacity="0.8"/>
</linearGradient>
<linearGradient id="paint7_linear_1_42" x1="514" y1="217.07" x2="593" y2="217.07" gradientUnits="userSpaceOnUse">
<stop stop-color="#FA8C32"/>
<stop offset="1" stop-color="#FFB374"/>
</linearGradient>
<linearGradient id="paint8_linear_1_42" x1="514" y1="217.07" x2="592.995" y2="217.709" gradientUnits="userSpaceOnUse">
<stop stop-color="#FA8C32"/>
<stop offset="1" stop-color="#FFB374"/>
</linearGradient>
<linearGradient id="paint9_linear_1_42" x1="609" y1="217.07" x2="986.754" y2="177.022" gradientUnits="userSpaceOnUse">
<stop stop-color="#1C84DB"/>
<stop offset="1" stop-color="#00BBFF"/>
</linearGradient>
<linearGradient id="paint10_linear_1_42" x1="609" y1="217.07" x2="991" y2="217.07" gradientUnits="userSpaceOnUse">
<stop stop-color="#1C84DB"/>
<stop offset="1" stop-color="#00BBFF"/>
</linearGradient>
</defs>
</svg>
