<svg width="451" height="353" viewBox="0 0 451 353" fill="none" xmlns="http://www.w3.org/2000/svg">
<mask id="mask0_1_21" style="mask-type:luminance" maskUnits="userSpaceOnUse" x="0" y="0" width="451" height="353">
<path d="M450.251 0.0215607H0.251007V352.952H450.251V0.0215607Z" fill="white"/>
</mask>
<g mask="url(#mask0_1_21)">
<path d="M114.051 179.932C114.631 180.272 115.191 180.612 115.771 180.952L114.041 179.952V179.932H114.051Z" fill="#F29040"/>
<path d="M450.251 277.952C450.251 319.372 416.671 352.952 375.251 352.952H75.251C33.831 352.952 0.251007 319.372 0.251007 277.952C0.251007 245.312 21.111 217.542 50.221 207.232C53.431 206.092 56.741 205.172 60.141 204.472C62.701 203.952 65.301 203.552 67.941 203.302C70.341 203.072 72.781 202.952 75.251 202.952H375.251C378.341 202.952 381.401 203.142 384.391 203.502C387.601 203.892 390.751 204.482 393.821 205.272C426.261 213.532 450.251 242.942 450.251 277.952Z" fill="url(#paint0_linear_1_21)"/>
<path opacity="0.2" d="M275.531 352.952L94.651 272.422C94.041 272.142 93.441 271.872 92.831 271.582C67.091 259.302 51.431 234.082 50.221 207.232C53.431 206.092 56.741 205.172 60.141 204.472C62.701 203.952 65.301 203.552 67.941 203.302C71.821 223.262 83.761 241.552 102.341 252.932C102.911 253.282 103.481 253.612 104.061 253.952L275.531 352.952Z" fill="black"/>
<path d="M308.431 0.461565L288.391 73.1816L287.641 75.8916C284.171 75.0316 280.681 74.3816 277.181 73.9116H277.131C246.611 69.8516 215.431 80.1616 193.331 102.212H193.321C192.601 102.942 191.911 103.662 191.211 104.402C187.251 108.602 183.611 113.192 180.341 118.172L150.851 78.2716C148.591 75.2216 149.701 70.8616 153.151 69.2616L300.191 1.14157C302.851 -0.0984341 305.771 -0.278435 308.431 0.461565Z" fill="white"/>
<path d="M308.431 0.461565L288.391 73.1816L287.641 75.8916C284.171 75.0316 280.681 74.3816 277.181 73.9116H277.131C246.611 69.8516 215.431 80.1616 193.331 102.212H193.321C192.601 102.942 191.911 103.662 191.211 104.402C187.251 108.602 183.611 113.192 180.341 118.172L150.851 78.2716C148.591 75.2216 149.701 70.8616 153.151 69.2616L300.191 1.14157C302.851 -0.0984341 305.771 -0.278435 308.431 0.461565Z" fill="url(#paint1_linear_1_21)"/>
<path d="M405.411 146.472L387.301 154.462L363.591 164.912C363.181 159.892 362.391 154.922 361.231 150.042C355.121 124.172 338.771 100.782 313.931 86.4416C305.491 81.5716 296.641 78.0716 287.641 75.8916L288.391 73.1816L308.431 0.461563C311.041 1.18156 313.411 2.78156 315.051 5.13156L407.901 137.542C410.081 140.632 408.871 144.952 405.411 146.472Z" fill="white"/>
<path d="M405.411 146.472L387.301 154.462L363.591 164.912C363.181 159.892 362.391 154.922 361.231 150.042C355.121 124.172 338.771 100.782 313.931 86.4416C305.491 81.5716 296.641 78.0716 287.641 75.8916L288.391 73.1816L308.431 0.461563C311.041 1.18156 313.411 2.78156 315.051 5.13156L407.901 137.542C410.081 140.632 408.871 144.952 405.411 146.472Z" fill="url(#paint2_linear_1_21)"/>
<path d="M359.371 202.952C357.221 209.822 354.281 216.562 350.531 223.052L275.531 352.952L104.061 253.952C103.481 253.612 102.911 253.282 102.341 252.932C83.761 241.552 71.821 223.262 67.941 203.302C67.911 203.182 67.891 203.072 67.871 202.952C64.631 185.922 67.261 167.692 76.611 151.502C78.661 147.942 80.971 144.622 83.491 141.532C91.081 132.212 100.641 125.082 111.191 120.422C131.771 111.322 156.161 111.582 177.321 123.062C177.611 123.232 177.901 123.392 178.191 123.552L177.331 123.052C178.291 121.382 179.301 119.752 180.341 118.162C183.611 113.182 187.251 108.592 191.211 104.392C191.911 103.652 192.601 102.932 193.321 102.212H193.331C215.431 80.1516 246.611 69.8416 277.131 73.9016H277.181C280.681 74.3716 284.171 75.0216 287.641 75.8816C296.641 78.0616 305.491 81.5616 313.931 86.4316C338.771 100.772 355.121 124.162 361.231 150.032C362.391 154.912 363.181 159.882 363.591 164.902C364.641 177.532 363.301 190.452 359.371 202.942V202.952Z" fill="url(#paint3_linear_1_21)"/>
<path opacity="0.2" d="M384.391 203.502C383.041 207.772 381.391 211.972 379.431 216.082C376.341 222.582 372.501 228.852 367.881 234.752L275.531 352.952L350.531 223.052C354.281 216.562 357.221 209.822 359.371 202.952H375.251C378.341 202.952 381.401 203.142 384.391 203.502Z" fill="black"/>
<path d="M275.531 352.952L104.061 253.952C103.481 253.612 102.911 253.282 102.341 252.932C83.761 241.552 71.821 223.262 67.941 203.302C67.911 203.182 67.891 203.072 67.871 202.952C64.631 185.922 67.261 167.692 76.611 151.502C78.661 147.942 80.971 144.622 83.491 141.532C91.081 132.212 100.641 125.082 111.191 120.422C131.771 111.322 156.161 111.582 177.321 123.062L211.451 202.952L275.531 352.952Z" fill="url(#paint4_linear_1_21)"/>
<path d="M407.171 185.322H410.331C413.971 185.322 416.651 181.902 415.761 178.362L411.471 161.182C410.761 158.352 406.741 158.352 406.041 161.182L401.751 178.362C400.871 181.892 403.541 185.322 407.181 185.322H407.171Z" fill="url(#paint5_linear_1_21)"/>
</g>
<defs>
<linearGradient id="paint0_linear_1_21" x1="0.251007" y1="277.952" x2="450.251" y2="277.952" gradientUnits="userSpaceOnUse">
<stop stop-color="#00BFFE"/>
<stop offset="0.08" stop-color="#00A6FE"/>
<stop offset="0.2" stop-color="#0089FE"/>
<stop offset="0.32" stop-color="#0074FE"/>
<stop offset="0.44" stop-color="#0068FE"/>
<stop offset="0.55" stop-color="#0064FF"/>
<stop offset="0.63" stop-color="#006CFE"/>
<stop offset="0.76" stop-color="#0085FE"/>
<stop offset="0.93" stop-color="#00ACFE"/>
<stop offset="1" stop-color="#00BFFE"/>
</linearGradient>
<linearGradient id="paint1_linear_1_21" x1="246.751" y1="20.0214" x2="223.251" y2="110.521" gradientUnits="userSpaceOnUse">
<stop offset="0.408558" stop-color="#FA9046"/>
<stop offset="0.859181" stop-color="#F29040" stop-opacity="0.8"/>
</linearGradient>
<linearGradient id="paint2_linear_1_21" x1="293.22" y1="129.627" x2="343.623" y2="13.9915" gradientUnits="userSpaceOnUse">
<stop offset="0.0778199" stop-color="#FF8828" stop-opacity="0.4"/>
<stop offset="0.514807" stop-color="#FA882D"/>
</linearGradient>
<linearGradient id="paint3_linear_1_21" x1="187.851" y1="337.492" x2="235.631" y2="66.4916" gradientUnits="userSpaceOnUse">
<stop stop-color="#0064FF"/>
<stop offset="0.71" stop-color="#00BBFF"/>
</linearGradient>
<linearGradient id="paint4_linear_1_21" x1="66.551" y1="233.472" x2="275.531" y2="233.472" gradientUnits="userSpaceOnUse">
<stop offset="0.43" stop-color="#00BFFE" stop-opacity="0.3"/>
<stop offset="0.9" stop-color="#0064FF" stop-opacity="0.3"/>
</linearGradient>
<linearGradient id="paint5_linear_1_21" x1="402.242" y1="179.687" x2="418.842" y2="177.009" gradientUnits="userSpaceOnUse">
<stop stop-color="#F29040"/>
<stop offset="1" stop-color="#F29040" stop-opacity="0.8"/>
</linearGradient>
</defs>
</svg>
