<svg width="20" height="21" viewBox="0 0 20 21" fill="none" xmlns="http://www.w3.org/2000/svg">
<path d="M16.8356 4.49115C16.6939 4.4179 16.5559 4.33759 16.4222 4.25054C16.0334 3.9935 15.6769 3.69063 15.3604 3.34846C14.5686 2.44244 14.2729 1.5233 14.1639 0.879769H14.1683C14.0773 0.345608 14.1149 0 14.1206 0H10.5141V13.9459C10.5141 14.1332 10.5141 14.3182 10.5062 14.5011C10.5062 14.5238 10.504 14.5448 10.5027 14.5693C10.5027 14.5794 10.5027 14.5899 10.5005 14.6004C10.5005 14.603 10.5005 14.6056 10.5005 14.6083C10.4625 15.1086 10.3021 15.592 10.0334 16.0159C9.76473 16.4397 9.39601 16.791 8.9597 17.0389C8.50496 17.2976 7.99064 17.4333 7.46746 17.4326C5.7871 17.4326 4.42523 16.0624 4.42523 14.3703C4.42523 12.6781 5.7871 11.3079 7.46746 11.3079C7.78554 11.3076 8.10167 11.3577 8.4041 11.4562L8.40847 7.78405C7.49037 7.66545 6.55764 7.73842 5.66915 7.99834C4.78065 8.25827 3.95566 8.6995 3.24623 9.29422C2.6246 9.83433 2.102 10.4788 1.70193 11.1986C1.54969 11.4611 0.975281 12.5158 0.905722 14.2277C0.861974 15.1993 1.15377 16.2059 1.29289 16.622V16.6307C1.38039 16.8757 1.71943 17.7117 2.27197 18.4165C2.71751 18.9819 3.24391 19.4785 3.8342 19.8904V19.8816L3.84295 19.8904C5.58893 21.0768 7.52477 20.999 7.52477 20.999C7.85988 20.9854 8.98244 20.999 10.2573 20.3948C11.6712 19.725 12.4761 18.7271 12.4761 18.7271C12.9904 18.1309 13.3993 17.4514 13.6853 16.7178C14.0117 15.8599 14.1206 14.8309 14.1206 14.4197V7.02109C14.1644 7.04734 14.7471 7.43275 14.7471 7.43275C14.7471 7.43275 15.5866 7.97085 16.8964 8.32127C17.8361 8.57063 19.1022 8.62313 19.1022 8.62313V5.04281C18.6586 5.09093 17.7578 4.95094 16.8356 4.49115Z" fill="#0958D9"/>
</svg>
