<svg width="111" height="33" viewBox="0 0 111 33" fill="none" xmlns="http://www.w3.org/2000/svg">
<path d="M110.154 29.0232C110.154 30.7285 108.744 32.1098 106.999 32.1098H3.77365C2.03031 32.1098 0.615234 30.7285 0.615234 29.0232V4.40807C0.615234 2.70356 2.03031 1.31738 3.77365 1.31738H106.999C108.744 1.31738 110.153 2.70356 110.153 4.40807L110.154 29.0232Z" fill="black"/>
<path d="M106.667 1.35536C108.566 1.35536 110.112 2.86236 110.112 4.71436V28.7144C110.112 30.5664 108.566 32.0734 106.667 32.0734H4.10256C2.20308 32.0734 0.657436 30.5664 0.657436 28.7144V4.71436C0.657436 2.86236 2.20308 1.35536 4.10256 1.35536H106.667ZM106.667 0.714357H4.10256C1.84718 0.714357 0 2.51536 0 4.71436V28.7144C0 30.9134 1.84718 32.7144 4.10256 32.7144H106.667C108.922 32.7144 110.769 30.9134 110.769 28.7144V4.71436C110.769 2.51536 108.922 0.714357 106.667 0.714357Z" fill="#A6A6A6"/>
<path d="M24.7201 16.5416C24.6963 13.9632 26.8854 12.7088 26.9855 12.6504C25.7457 10.888 23.8241 10.6472 23.1488 10.628C21.5349 10.4624 19.9693 11.5696 19.1472 11.5696C18.3086 11.5696 17.0426 10.644 15.678 10.6712C13.9221 10.6976 12.2795 11.6888 11.3786 13.228C9.51927 16.3664 10.9059 20.9784 12.6873 23.5152C13.5784 24.7576 14.6196 26.1448 15.9825 26.096C17.3158 26.0424 17.8138 25.2672 19.4229 25.2672C21.0171 25.2672 21.4848 26.096 22.8748 26.0648C24.3057 26.0424 25.2067 24.8168 26.0666 23.5632C27.0963 22.1392 27.5098 20.7368 27.5262 20.6648C27.4926 20.6536 24.7472 19.632 24.7201 16.5416Z" fill="white"/>
<path d="M22.0945 8.95919C22.8116 8.08479 23.3022 6.89519 23.166 5.68799C22.1281 5.73279 20.83 6.38799 20.0826 7.24319C19.4212 7.99679 18.8305 9.23199 18.9831 10.3936C20.149 10.4784 21.3461 9.81999 22.0945 8.95919Z" fill="white"/>
<path d="M44.0168 25.9184H42.1534L41.1327 22.7912H37.5848L36.6125 25.9184H34.7983L38.3134 15.272H40.4845L44.0168 25.9184ZM40.825 21.4792L39.9019 18.6992C39.8043 18.4152 39.6213 17.7464 39.3514 16.6936H39.3185C39.2111 17.1464 39.0379 17.8152 38.8 18.6992L37.8933 21.4792H40.825Z" fill="white"/>
<path d="M53.0565 21.9851C53.0565 23.2907 52.6946 24.3227 51.9709 25.0803C51.3227 25.7547 50.5178 26.0915 49.557 26.0915C48.5199 26.0915 47.7748 25.7283 47.3211 25.0019H47.2883V29.0459H45.5389V20.7683C45.5389 19.9475 45.5168 19.1051 45.4741 18.2411H47.0126L47.1102 19.4579H47.143C47.7264 18.5411 48.6118 18.0835 49.7999 18.0835C50.7287 18.0835 51.5041 18.4411 52.1244 19.1571C52.7463 19.8739 53.0565 20.8163 53.0565 21.9851ZM51.2743 22.0475C51.2743 21.3003 51.102 20.6843 50.7558 20.1995C50.3775 19.6939 49.8696 19.4411 49.2329 19.4411C48.8013 19.4411 48.4091 19.5819 48.0587 19.8595C47.7076 20.1395 47.4778 20.5051 47.3703 20.9579C47.3162 21.1691 47.2891 21.3419 47.2891 21.4779V22.7579C47.2891 23.3163 47.4647 23.7875 47.8159 24.1723C48.167 24.5571 48.6232 24.7491 49.1845 24.7491C49.8434 24.7491 50.3562 24.5011 50.7229 24.0067C51.0905 23.5115 51.2743 22.8587 51.2743 22.0475Z" fill="white"/>
<path d="M62.1123 21.9851C62.1123 23.2907 61.7505 24.3227 61.0259 25.0803C60.3786 25.7547 59.5736 26.0915 58.6128 26.0915C57.5757 26.0915 56.8307 25.7283 56.3777 25.0019H56.3449V29.0459H54.5956V20.7683C54.5956 19.9475 54.5734 19.1051 54.5308 18.2411H56.0692L56.1669 19.4579H56.1997C56.7822 18.5411 57.6676 18.0835 58.8565 18.0835C59.7845 18.0835 60.5599 18.4411 61.1818 19.1571C61.8013 19.8739 62.1123 20.8163 62.1123 21.9851ZM60.3301 22.0475C60.3301 21.3003 60.157 20.6843 59.8108 20.1995C59.4325 19.6939 58.9262 19.4411 58.2887 19.4411C57.8563 19.4411 57.4649 19.5819 57.1137 19.8595C56.7626 20.1395 56.5336 20.5051 56.4261 20.9579C56.3728 21.1691 56.3449 21.3419 56.3449 21.4779V22.7579C56.3449 23.3163 56.5205 23.7875 56.87 24.1723C57.2212 24.5563 57.6774 24.7491 58.2403 24.7491C58.8992 24.7491 59.412 24.5011 59.7788 24.0067C60.1464 23.5115 60.3301 22.8587 60.3301 22.0475Z" fill="white"/>
<path d="M72.2375 22.9325C72.2375 23.8381 71.9151 24.5749 71.2677 25.1437C70.5563 25.7653 69.5659 26.0757 68.2933 26.0757C67.1184 26.0757 66.1764 25.8549 65.4634 25.4125L65.8687 23.9909C66.6367 24.4437 67.4794 24.6709 68.3975 24.6709C69.0564 24.6709 69.5692 24.5253 69.9376 24.2357C70.3044 23.9461 70.4874 23.5573 70.4874 23.0725C70.4874 22.6405 70.3364 22.2765 70.0336 21.9813C69.7325 21.6861 69.2295 21.4117 68.5272 21.1581C66.6154 20.4629 65.6603 19.4445 65.6603 18.1053C65.6603 17.2301 65.9951 16.5125 66.6654 15.9541C67.3333 15.3949 68.2244 15.1157 69.3387 15.1157C70.3323 15.1157 71.1577 15.2845 71.8166 15.6213L71.3793 17.0117C70.7639 16.6853 70.0681 16.5221 69.2894 16.5221C68.674 16.5221 68.1932 16.6701 67.8486 16.9645C67.5573 17.2277 67.4113 17.5485 67.4113 17.9285C67.4113 18.3493 67.5778 18.6973 67.9126 18.9709C68.2039 19.2237 68.7331 19.4973 69.5011 19.7925C70.4406 20.1613 71.1307 20.5925 71.5746 21.0869C72.0168 21.5797 72.2375 22.1965 72.2375 22.9325Z" fill="white"/>
<path d="M78.0211 19.5219H76.0929V23.2491C76.0929 24.1971 76.4326 24.6707 77.1137 24.6707C77.4263 24.6707 77.6856 24.6443 77.8907 24.5915L77.9391 25.8867C77.5945 26.0123 77.1407 26.0755 76.5787 26.0755C75.8878 26.0755 75.3479 25.8699 74.9582 25.4595C74.5701 25.0483 74.3748 24.3587 74.3748 23.3899V19.5203H73.2261V18.2403H74.3748V16.8347L76.0929 16.3291V18.2403H78.0211V19.5219Z" fill="white"/>
<path d="M86.7213 22.0165C86.7213 23.1965 86.375 24.1653 85.6841 24.9229C84.9596 25.7029 83.998 26.0917 82.7992 26.0917C81.6439 26.0917 80.7241 25.7181 80.0382 24.9709C79.3522 24.2237 79.0093 23.2805 79.0093 22.1437C79.0093 20.9541 79.3621 19.9797 80.0702 19.2221C80.7767 18.4637 81.7301 18.0845 82.9289 18.0845C84.0841 18.0845 85.0138 18.4581 85.7153 19.2061C86.3865 19.9317 86.7213 20.8685 86.7213 22.0165ZM84.9063 22.0717C84.9063 21.3637 84.7512 20.7565 84.437 20.2501C84.0702 19.6373 83.5459 19.3317 82.8665 19.3317C82.1633 19.3317 81.6292 19.6381 81.2624 20.2501C80.9481 20.7573 80.7931 21.3741 80.7931 22.1037C80.7931 22.8117 80.9481 23.4189 81.2624 23.9245C81.6407 24.5373 82.1691 24.8429 82.8509 24.8429C83.5188 24.8429 84.0431 24.5309 84.4214 23.9085C84.7438 23.3925 84.9063 22.7789 84.9063 22.0717Z" fill="white"/>
<path d="M92.4074 19.7411C92.2342 19.7099 92.0496 19.6939 91.856 19.6939C91.2406 19.6939 90.7647 19.9203 90.4299 20.3739C90.1386 20.7739 89.9926 21.2795 89.9926 21.8899V25.9179H88.2441L88.2605 20.6587C88.2605 19.7739 88.2383 18.9683 88.1948 18.2419H89.7185L89.7825 19.7107H89.8309C90.0156 19.2059 90.3068 18.7995 90.7056 18.4947C91.0953 18.2203 91.5163 18.0835 91.97 18.0835C92.1317 18.0835 92.2777 18.0947 92.4074 18.1147V19.7411Z" fill="white"/>
<path d="M100.231 21.7165C100.231 22.0221 100.211 22.2797 100.167 22.4901H94.9192C94.9397 23.2485 95.1933 23.8285 95.6807 24.2285C96.1229 24.5861 96.6948 24.7653 97.3972 24.7653C98.1742 24.7653 98.8831 24.6445 99.5206 24.4021L99.7947 25.5861C99.0497 25.9029 98.1701 26.0605 97.1551 26.0605C95.9342 26.0605 94.9758 25.7101 94.2784 25.0101C93.5826 24.3101 93.2339 23.3701 93.2339 22.1909C93.2339 21.0333 93.558 20.0693 94.207 19.3005C94.8864 18.4797 95.8045 18.0693 96.9598 18.0693C98.0946 18.0693 98.9537 18.4797 99.5371 19.3005C99.999 19.9525 100.231 20.7589 100.231 21.7165ZM98.5631 21.2741C98.5746 20.7685 98.4605 20.3317 98.2234 19.9629C97.9207 19.4885 97.4554 19.2517 96.8294 19.2517C96.2575 19.2517 95.7922 19.4829 95.437 19.9469C95.1457 20.3157 94.9726 20.7581 94.9192 21.2733H98.5631V21.2741Z" fill="white"/>
<path d="M40.2459 8.72181C40.2459 9.66341 39.9562 10.3722 39.3778 10.8482C38.842 11.2874 38.0805 11.5074 37.0943 11.5074C36.6052 11.5074 36.1868 11.4866 35.8364 11.445V6.30021C36.2935 6.22821 36.7858 6.19141 37.3175 6.19141C38.2569 6.19141 38.965 6.39061 39.4426 6.78901C39.9776 7.23941 40.2459 7.88341 40.2459 8.72181ZM39.3392 8.74501C39.3392 8.13461 39.1735 7.66661 38.842 7.34021C38.5105 7.01461 38.0264 6.85141 37.3888 6.85141C37.1181 6.85141 36.8875 6.86901 36.6963 6.90581V10.817C36.8022 10.833 36.9958 10.8402 37.2772 10.8402C37.9353 10.8402 38.4432 10.6618 38.8009 10.305C39.1587 9.94821 39.3392 9.42821 39.3392 8.74501Z" fill="white"/>
<path d="M45.0534 9.54497C45.0534 10.125 44.8836 10.6002 44.5439 10.973C44.1878 11.3562 43.716 11.5474 43.1269 11.5474C42.5591 11.5474 42.107 11.3642 41.7698 10.9962C41.4333 10.629 41.2651 10.1658 41.2651 9.60737C41.2651 9.02337 41.4383 8.54417 41.7862 8.17217C42.1341 7.80017 42.6018 7.61377 43.1909 7.61377C43.7587 7.61377 44.2149 7.79697 44.5603 8.16417C44.8885 8.52097 45.0534 8.98177 45.0534 9.54497ZM44.1615 9.57217C44.1615 9.22417 44.0844 8.92577 43.931 8.67697C43.7505 8.37617 43.4937 8.22577 43.1597 8.22577C42.8143 8.22577 42.5517 8.37617 42.3712 8.67697C42.2169 8.92577 42.1406 9.22897 42.1406 9.58737C42.1406 9.93537 42.2178 10.2338 42.3712 10.4826C42.5574 10.7834 42.8167 10.9338 43.1515 10.9338C43.4797 10.9338 43.7373 10.781 43.9228 10.4746C44.082 10.221 44.1615 9.92017 44.1615 9.57217Z" fill="white"/>
<path d="M51.4991 7.68994L50.2889 11.4611H49.5012L48.9998 9.82354C48.8727 9.41474 48.7693 9.00834 48.6889 8.60514H48.6733C48.5986 9.01954 48.4952 9.42514 48.3623 9.82354L47.8298 11.4611H47.0331L45.895 7.68994H46.7787L47.216 9.48274C47.3219 9.90674 47.4089 10.3107 47.4786 10.6931H47.4942C47.5582 10.3779 47.664 9.97634 47.8134 9.49074L48.3623 7.69074H49.063L49.589 9.45234C49.7161 9.88194 49.8195 10.2955 49.8991 10.6939H49.9229C49.9812 10.3059 50.069 9.89234 50.1855 9.45234L50.6548 7.69074H51.4991V7.68994Z" fill="white"/>
<path d="M55.9572 11.4617H55.0973V9.30173C55.0973 8.63613 54.8381 8.30333 54.3179 8.30333C54.0627 8.30333 53.8567 8.39453 53.6967 8.57773C53.5384 8.76093 53.458 8.97693 53.458 9.22413V11.4609H52.5981V8.76813C52.5981 8.43693 52.5874 8.07773 52.5669 7.68893H53.3226L53.3628 8.27853H53.3866C53.4867 8.09533 53.636 7.94413 53.8321 7.82333C54.0651 7.68253 54.3261 7.61133 54.6116 7.61133C54.9726 7.61133 55.2729 7.72493 55.5117 7.95293C55.8087 8.23213 55.9572 8.64893 55.9572 9.20253V11.4617Z" fill="white"/>
<path d="M58.3283 11.4611H57.4692V5.95947H58.3283V11.4611Z" fill="white"/>
<path d="M63.3913 9.54497C63.3913 10.125 63.2215 10.6002 62.8818 10.973C62.5257 11.3562 62.0531 11.5474 61.4648 11.5474C60.8962 11.5474 60.4441 11.3642 60.1076 10.9962C59.7712 10.629 59.603 10.1658 59.603 9.60737C59.603 9.02337 59.7762 8.54417 60.1241 8.17217C60.472 7.80017 60.9396 7.61377 61.528 7.61377C62.0966 7.61377 62.5519 7.79697 62.8982 8.16417C63.2264 8.52097 63.3913 8.98177 63.3913 9.54497ZM62.4986 9.57217C62.4986 9.22417 62.4215 8.92577 62.2681 8.67697C62.0884 8.37617 61.8307 8.22577 61.4976 8.22577C61.1513 8.22577 60.8888 8.37617 60.7091 8.67697C60.5548 8.92577 60.4785 9.22897 60.4785 9.58737C60.4785 9.93537 60.5556 10.2338 60.7091 10.4826C60.8953 10.7834 61.1546 10.9338 61.4894 10.9338C61.8176 10.9338 62.0744 10.781 62.2598 10.4746C62.4198 10.221 62.4986 9.92017 62.4986 9.57217Z" fill="white"/>
<path d="M67.5528 11.4618H66.7807L66.7167 11.0274H66.6929C66.4287 11.3738 66.0521 11.5474 65.5631 11.5474C65.198 11.5474 64.9026 11.433 64.6802 11.2058C64.4784 10.9994 64.3774 10.7426 64.3774 10.4378C64.3774 9.97697 64.5744 9.62577 64.9707 9.38257C65.3662 9.13937 65.9225 9.02017 66.6388 9.02577V8.95537C66.6388 8.45857 66.3713 8.21057 65.8355 8.21057C65.454 8.21057 65.1175 8.30417 64.8271 8.48977L64.6523 7.93937C65.0117 7.72257 65.4556 7.61377 65.9791 7.61377C66.99 7.61377 67.497 8.13377 67.497 9.17377V10.5626C67.497 10.9394 67.5159 11.2394 67.5528 11.4618ZM66.6601 10.1658V9.58417C65.7116 9.56817 65.2373 9.82177 65.2373 10.3442C65.2373 10.541 65.2915 10.6882 65.4023 10.7866C65.513 10.885 65.6542 10.9338 65.8224 10.9338C66.0111 10.9338 66.1875 10.8754 66.3483 10.7594C66.51 10.6426 66.6092 10.4946 66.6462 10.313C66.6552 10.2722 66.6601 10.2226 66.6601 10.1658Z" fill="white"/>
<path d="M72.4389 11.4611H71.6758L71.6356 10.8555H71.6118C71.3681 11.3163 70.9529 11.5467 70.3696 11.5467C69.9035 11.5467 69.5154 11.3683 69.2077 11.0115C68.9 10.6547 68.7466 10.1915 68.7466 9.62267C68.7466 9.01227 68.9131 8.51787 69.2479 8.14027C69.572 7.78827 69.9691 7.61227 70.4418 7.61227C70.9611 7.61227 71.3246 7.78267 71.5314 8.12427H71.5478V5.95947H72.4085V10.4451C72.4085 10.8123 72.4184 11.1507 72.4389 11.4611ZM71.5478 9.87067V9.24187C71.5478 9.13307 71.5396 9.04507 71.524 8.97787C71.4756 8.77627 71.3714 8.60667 71.213 8.46987C71.053 8.33307 70.8602 8.26427 70.6379 8.26427C70.317 8.26427 70.066 8.38827 69.8813 8.63707C69.6984 8.88587 69.6057 9.20347 69.6057 9.59147C69.6057 9.96427 69.6934 10.2667 69.8699 10.4995C70.0561 10.7475 70.3072 10.8715 70.6214 10.8715C70.9037 10.8715 71.1293 10.7683 71.3008 10.5611C71.4666 10.3699 71.5478 10.1395 71.5478 9.87067Z" fill="white"/>
<path d="M79.7932 9.54497C79.7932 10.125 79.6233 10.6002 79.2836 10.973C78.9275 11.3562 78.4566 11.5474 77.8666 11.5474C77.2997 11.5474 76.8476 11.3642 76.5095 10.9962C76.1731 10.629 76.0049 10.1658 76.0049 9.60737C76.0049 9.02337 76.178 8.54417 76.5259 8.17217C76.8738 7.80017 77.3415 7.61377 77.9314 7.61377C78.4984 7.61377 78.9554 7.79697 79.3001 8.16417C79.6283 8.52097 79.7932 8.98177 79.7932 9.54497ZM78.9021 9.57217C78.9021 9.22417 78.825 8.92577 78.6715 8.67697C78.4902 8.37617 78.2342 8.22577 77.8994 8.22577C77.5548 8.22577 77.2923 8.37617 77.1109 8.67697C76.9567 8.92577 76.8804 9.22897 76.8804 9.58737C76.8804 9.93537 76.9575 10.2338 77.1109 10.4826C77.2972 10.7834 77.5565 10.9338 77.8912 10.9338C78.2194 10.9338 78.4779 10.781 78.6633 10.4746C78.8217 10.221 78.9021 9.92017 78.9021 9.57217Z" fill="white"/>
<path d="M84.4164 11.4617H83.5573V9.30173C83.5573 8.63613 83.298 8.30333 82.777 8.30333C82.5218 8.30333 82.3159 8.39453 82.1567 8.57773C81.9975 8.76093 81.9179 8.97693 81.9179 9.22413V11.4609H81.0572V8.76813C81.0572 8.43693 81.0474 8.07773 81.0269 7.68893H81.7817L81.8219 8.27853H81.8457C81.9466 8.09533 82.096 7.94413 82.2913 7.82333C82.5251 7.68253 82.7852 7.61133 83.0716 7.61133C83.4318 7.61133 83.7321 7.72493 83.9708 7.95293C84.2687 8.23213 84.4164 8.64893 84.4164 9.20253V11.4617Z" fill="white"/>
<path d="M90.2038 8.31769H89.257V10.1497C89.257 10.6153 89.4252 10.8481 89.7583 10.8481C89.9125 10.8481 90.0406 10.8353 90.1415 10.8089L90.1636 11.4449C89.9938 11.5073 89.7706 11.5385 89.4957 11.5385C89.156 11.5385 88.8918 11.4377 88.7007 11.2361C88.5087 11.0345 88.4135 10.6953 88.4135 10.2193V8.31769H87.8481V7.68969H88.4135V6.99849L89.2561 6.75049V7.68889H90.203V8.31769H90.2038Z" fill="white"/>
<path d="M94.7557 11.4611H93.895V9.31707C93.895 8.64107 93.6357 8.30267 93.1163 8.30267C92.7175 8.30267 92.4451 8.49867 92.2958 8.89067C92.2703 8.97307 92.2556 9.07387 92.2556 9.19227V11.4603H91.3965V5.95947H92.2556V8.23227H92.272C92.5427 7.81867 92.9309 7.61227 93.4338 7.61227C93.7899 7.61227 94.0845 7.72587 94.3183 7.95387C94.6096 8.23787 94.7557 8.66027 94.7557 9.21867V11.4611Z" fill="white"/>
<path d="M99.452 9.39764C99.452 9.54804 99.4405 9.67444 99.42 9.77764H96.8411C96.8526 10.1504 96.9756 10.4344 97.2144 10.6312C97.4327 10.8072 97.7141 10.8952 98.0587 10.8952C98.4403 10.8952 98.7882 10.836 99.1016 10.7168L99.2362 11.2992C98.8694 11.4544 98.4378 11.532 97.9381 11.532C97.3391 11.532 96.8673 11.36 96.526 11.016C96.183 10.672 96.0132 10.2104 96.0132 9.63125C96.0132 9.06245 96.1715 8.58884 96.4907 8.21124C96.8239 7.80804 97.2743 7.60645 97.8429 7.60645C98.3992 7.60645 98.8218 7.80804 99.1073 8.21124C99.3379 8.53124 99.452 8.92724 99.452 9.39764ZM98.6314 9.18084C98.638 8.93204 98.5814 8.71765 98.4649 8.53685C98.3155 8.30405 98.0883 8.18725 97.7806 8.18725C97.5 8.18725 97.271 8.30085 97.0963 8.52885C96.9535 8.71045 96.869 8.92724 96.8411 9.18084H98.6314Z" fill="white"/>
</svg>
