<svg width="112" height="33" viewBox="0 0 112 33" fill="none" xmlns="http://www.w3.org/2000/svg">
<path d="M107.289 32.7144H4.86597C2.61368 32.7144 0.769043 30.9134 0.769043 28.7144V4.71438C0.769043 2.51538 2.61368 0.714383 4.86597 0.714383H107.289C109.541 0.714383 111.386 2.51538 111.386 4.71438V28.7144C111.386 30.9134 109.541 32.7144 107.289 32.7144Z" fill="black"/>
<path d="M107.289 1.35538C109.186 1.35538 110.73 2.86238 110.73 4.71438V28.7144C110.73 30.5664 109.186 32.0734 107.289 32.0734H4.86597C2.96909 32.0734 1.42558 30.5664 1.42558 28.7144V4.71438C1.42558 2.86238 2.96909 1.35538 4.86597 1.35538H107.289ZM107.289 0.714383H4.86597C2.61368 0.714383 0.769043 2.51538 0.769043 4.71438V28.7144C0.769043 30.9134 2.61368 32.7144 4.86597 32.7144H107.289C109.541 32.7144 111.386 30.9134 111.386 28.7144V4.71438C111.386 2.51538 109.541 0.714383 107.289 0.714383Z" fill="#A6A6A6"/>
<path d="M39.6224 8.90954C39.6224 9.57754 39.4176 10.1125 39.014 10.5115C38.55 10.9845 37.9457 11.2225 37.2052 11.2225C36.4975 11.2225 35.8932 10.9805 35.3974 10.5035C34.9007 10.0195 34.6528 9.42554 34.6528 8.71454C34.6528 8.00354 34.9007 7.40954 35.3974 6.92954C35.8932 6.44854 36.4975 6.20654 37.2052 6.20654C37.5576 6.20654 37.8935 6.27754 38.2141 6.40954C38.5336 6.54254 38.7938 6.72254 38.9823 6.94454L38.5541 7.36654C38.2253 6.98754 37.7778 6.80054 37.2052 6.80054C36.689 6.80054 36.2414 6.97654 35.8614 7.33154C35.4855 7.68754 35.2971 8.14854 35.2971 8.71454C35.2971 9.28054 35.4855 9.74554 35.8614 10.1015C36.2414 10.4525 36.689 10.6325 37.2052 10.6325C37.7532 10.6325 38.2141 10.4525 38.5777 10.0975C38.8174 9.86254 38.9536 9.53854 38.9894 9.12454H37.2052V8.54654H39.5855C39.6142 8.67154 39.6224 8.79254 39.6224 8.90954Z" fill="white" stroke="white" stroke-width="0.16" stroke-miterlimit="10"/>
<path d="M43.3987 6.90541H41.1628V8.42541H43.1784V9.0034H41.1628V10.5234H43.3987V11.1124H40.5298V6.31641H43.3987V6.90541Z" fill="white" stroke="white" stroke-width="0.16" stroke-miterlimit="10"/>
<path d="M46.0635 11.1124H45.4305V6.90541H44.0591V6.31641H47.436V6.90541H46.0635V11.1124Z" fill="white" stroke="white" stroke-width="0.16" stroke-miterlimit="10"/>
<path d="M49.8799 11.1124V6.31641H50.5118V11.1124H49.8799Z" fill="white" stroke="white" stroke-width="0.16" stroke-miterlimit="10"/>
<path d="M53.3135 11.1124H52.6856V6.90541H51.3091V6.31641H54.6901V6.90541H53.3135V11.1124Z" fill="white" stroke="white" stroke-width="0.16" stroke-miterlimit="10"/>
<path d="M61.0828 10.4955C60.5984 10.9805 59.9982 11.2225 59.2822 11.2225C58.5622 11.2225 57.962 10.9805 57.4776 10.4955C56.9941 10.0115 56.7534 9.41754 56.7534 8.71454C56.7534 8.01154 56.9941 7.41754 57.4776 6.93354C57.962 6.44854 58.5622 6.20654 59.2822 6.20654C59.9941 6.20654 60.5943 6.44854 61.0788 6.93754C61.5663 7.42554 61.807 8.01554 61.807 8.71454C61.807 9.41754 61.5663 10.0115 61.0828 10.4955ZM57.9456 10.0935C58.3103 10.4525 58.7537 10.6325 59.2822 10.6325C59.8067 10.6325 60.2542 10.4525 60.6148 10.0935C60.9784 9.73454 61.1627 9.27354 61.1627 8.71454C61.1627 8.15554 60.9784 7.69454 60.6148 7.33554C60.2542 6.97654 59.8067 6.79654 59.2822 6.79654C58.7537 6.79654 58.3103 6.97654 57.9456 7.33554C57.582 7.69454 57.3977 8.15554 57.3977 8.71454C57.3977 9.27354 57.582 9.73454 57.9456 10.0935Z" fill="white" stroke="white" stroke-width="0.16" stroke-miterlimit="10"/>
<path d="M62.6953 11.1124V6.31641H63.4635L65.852 10.0464H65.8796L65.852 9.12441V6.31641H66.4839V11.1124H65.8243L63.3232 7.19841H63.2955L63.3232 8.12441V11.1124H62.6953Z" fill="white" stroke="white" stroke-width="0.16" stroke-miterlimit="10"/>
<path d="M56.5977 18.1156C54.6732 18.1156 53.101 19.5456 53.101 21.5186C53.101 23.4756 54.6732 24.9206 56.5977 24.9206C58.5263 24.9206 60.0985 23.4756 60.0985 21.5186C60.0985 19.5456 58.5263 18.1156 56.5977 18.1156ZM56.5977 23.5806C55.5417 23.5806 54.6332 22.7296 54.6332 21.5186C54.6332 20.2916 55.5417 19.4556 56.5977 19.4556C57.6537 19.4556 58.5663 20.2916 58.5663 21.5186C58.5663 22.7296 57.6537 23.5806 56.5977 23.5806ZM48.9682 18.1156C47.0396 18.1156 45.4715 19.5456 45.4715 21.5186C45.4715 23.4756 47.0396 24.9206 48.9682 24.9206C50.8958 24.9206 52.4649 23.4756 52.4649 21.5186C52.4649 19.5456 50.8958 18.1156 48.9682 18.1156ZM48.9682 23.5806C47.9112 23.5806 46.9996 22.7296 46.9996 21.5186C46.9996 20.2916 47.9112 19.4556 48.9682 19.4556C50.0242 19.4556 50.9327 20.2916 50.9327 21.5186C50.9327 22.7296 50.0242 23.5806 48.9682 23.5806ZM39.8894 19.1586V20.6046H43.4261C43.3227 21.4126 43.0461 22.0066 42.6221 22.4206C42.1059 22.9206 41.3018 23.4756 39.8894 23.4756C37.7129 23.4756 36.0086 21.7606 36.0086 19.6356C36.0086 17.5106 37.7129 15.7956 39.8894 15.7956C41.0663 15.7956 41.9225 16.2446 42.5545 16.8266L43.5982 15.8076C42.7143 14.9836 41.5384 14.3506 39.8894 14.3506C36.9048 14.3506 34.3965 16.7216 34.3965 19.6356C34.3965 22.5496 36.9048 24.9206 39.8894 24.9206C41.5026 24.9206 42.7143 24.4046 43.6668 23.4366C44.6429 22.4836 44.9471 21.1436 44.9471 20.0616C44.9471 19.7256 44.9184 19.4166 44.8672 19.1586H39.8894ZM77.0137 20.2796C76.7259 19.5186 75.8379 18.1156 74.0291 18.1156C72.2367 18.1156 70.7444 19.4946 70.7444 21.5186C70.7444 23.4246 72.2213 24.9206 74.2012 24.9206C75.802 24.9206 76.7259 23.9676 77.1059 23.4126L75.9178 22.6396C75.5214 23.2056 74.9816 23.5806 74.2012 23.5806C73.4258 23.5806 72.8697 23.2336 72.5132 22.5496L77.1745 20.6666L77.0137 20.2796ZM72.2613 21.4126C72.2213 20.1006 73.305 19.4286 74.0813 19.4286C74.6897 19.4286 75.2059 19.7256 75.378 20.1506L72.2613 21.4126ZM68.4726 24.7136H70.0049V14.7136H68.4726V24.7136ZM65.9633 18.8736H65.9121C65.5679 18.4756 64.9114 18.1156 64.0797 18.1156C62.3344 18.1156 60.7387 19.6116 60.7387 21.5296C60.7387 23.4366 62.3344 24.9206 64.0797 24.9206C64.9114 24.9206 65.5679 24.5576 65.9121 24.1476H65.9633V24.6356C65.9633 25.9366 65.2514 26.6356 64.1033 26.6356C63.1671 26.6356 62.5864 25.9756 62.3467 25.4206L61.0142 25.9636C61.3983 26.8656 62.4153 27.9756 64.1033 27.9756C65.8998 27.9756 67.4156 26.9436 67.4156 24.4326V18.3226H65.9633V18.8736ZM64.2108 23.5806C63.1548 23.5806 62.2709 22.7176 62.2709 21.5296C62.2709 20.3306 63.1548 19.4556 64.2108 19.4556C65.2514 19.4556 66.0719 20.3306 66.0719 21.5296C66.0719 22.7176 65.2514 23.5806 64.2108 23.5806ZM84.1874 14.7136H80.5227V24.7136H82.0509V20.9246H84.1874C85.8846 20.9246 87.5489 19.7256 87.5489 17.8186C87.5489 15.9126 85.8805 14.7136 84.1874 14.7136ZM84.2274 19.5336H82.0509V16.1046H84.2274C85.3684 16.1046 86.0198 17.0296 86.0198 17.8186C86.0198 18.5926 85.3684 19.5336 84.2274 19.5336ZM93.6739 18.0966C92.5697 18.0966 91.4216 18.5726 90.9494 19.6276L92.3055 20.1826C92.5974 19.6276 93.1341 19.4476 93.7015 19.4476C94.4943 19.4476 95.2983 19.9126 95.3106 20.7336V20.8386C95.034 20.6826 94.442 20.4516 93.7138 20.4516C92.2532 20.4516 90.765 21.2366 90.765 22.7016C90.765 24.0416 91.9613 24.9046 93.3062 24.9046C94.3345 24.9046 94.9019 24.4516 95.2583 23.9246H95.3106V24.6976H96.7865V20.8616C96.7865 19.0886 95.4304 18.0966 93.6739 18.0966ZM93.4895 23.5766C92.9897 23.5766 92.2932 23.3346 92.2932 22.7296C92.2932 21.9556 93.1617 21.6586 93.9135 21.6586C94.5864 21.6586 94.9019 21.8036 95.3106 21.9946C95.1907 22.9206 94.3744 23.5766 93.4895 23.5766ZM102.164 18.3156L100.407 22.6506H100.355L98.539 18.3156H96.891L99.6195 24.3736L98.0627 27.7446H99.6595L103.864 18.3156H102.164ZM88.3888 24.7136H89.9211V14.7136H88.3888V24.7136Z" fill="white"/>
<path d="M9.31944 6.74472C9.07875 6.99072 8.93945 7.37372 8.93945 7.86972V25.5617C8.93945 26.0577 9.07875 26.4407 9.31944 26.6867L9.37885 26.7407L19.5331 16.8307V16.5967L9.37885 6.68672L9.31944 6.74472Z" fill="url(#paint0_linear_256_6220)"/>
<path d="M22.9137 20.1323L19.5327 16.8273V16.5933L22.9178 13.2883L22.9936 13.3313L27.0024 15.5583C28.1465 16.1903 28.1465 17.2303 27.0024 17.8663L22.9936 20.0893L22.9137 20.1323Z" fill="url(#paint1_linear_256_6220)"/>
<path d="M22.9938 20.0928L19.533 16.7138L9.31934 26.6868C9.69933 27.0768 10.319 27.1238 11.0237 26.7338L22.9938 20.0928Z" fill="url(#paint2_linear_256_6220)"/>
<path d="M22.9934 13.3354L11.0232 6.69436C10.3185 6.30836 9.69884 6.35536 9.31885 6.74536L19.5325 16.7144L22.9934 13.3354Z" fill="url(#paint3_linear_256_6220)"/>
<defs>
<linearGradient id="paint0_linear_256_6220" x1="18.6315" y1="25.746" x2="5.20943" y2="11.9987" gradientUnits="userSpaceOnUse">
<stop stop-color="#00A0FF"/>
<stop offset="0.0066" stop-color="#00A1FF"/>
<stop offset="0.2601" stop-color="#00BEFF"/>
<stop offset="0.5122" stop-color="#00D2FF"/>
<stop offset="0.7604" stop-color="#00DFFF"/>
<stop offset="1" stop-color="#00E3FF"/>
</linearGradient>
<linearGradient id="paint1_linear_256_6220" x1="28.4922" y1="16.7092" x2="8.66562" y2="16.7092" gradientUnits="userSpaceOnUse">
<stop stop-color="#FFE000"/>
<stop offset="0.4087" stop-color="#FFBD00"/>
<stop offset="0.7754" stop-color="#FFA500"/>
<stop offset="1" stop-color="#FF9C00"/>
</linearGradient>
<linearGradient id="paint2_linear_256_6220" x1="21.1119" y1="14.877" x2="2.9105" y2="-3.7655" gradientUnits="userSpaceOnUse">
<stop stop-color="#FF3A44"/>
<stop offset="1" stop-color="#C31162"/>
</linearGradient>
<linearGradient id="paint3_linear_256_6220" x1="6.74786" y1="32.5734" x2="14.8756" y2="24.2488" gradientUnits="userSpaceOnUse">
<stop stop-color="#32A071"/>
<stop offset="0.0685" stop-color="#2DA771"/>
<stop offset="0.4762" stop-color="#15CF74"/>
<stop offset="0.8009" stop-color="#06E775"/>
<stop offset="1" stop-color="#00F076"/>
</linearGradient>
</defs>
</svg>
