<svg width="17" height="16" viewBox="0 0 17 16" fill="none" xmlns="http://www.w3.org/2000/svg">
<path d="M15.0152 12.4689C14.771 13.0279 14.482 13.5424 14.1471 14.0155C13.6906 14.6604 13.3169 15.1068 13.0289 15.3547C12.5824 15.7616 12.104 15.97 11.5917 15.9818C11.224 15.9818 10.7805 15.8781 10.2642 15.6678C9.74628 15.4584 9.27029 15.3547 8.83506 15.3547C8.37861 15.3547 7.88906 15.4584 7.36543 15.6678C6.84101 15.8781 6.41854 15.9878 6.09553 15.9986C5.60429 16.0194 5.11465 15.8051 4.6259 15.3547C4.31395 15.0851 3.92377 14.6229 3.45636 13.9681C2.95485 13.2688 2.54255 12.458 2.21954 11.5336C1.87361 10.5351 1.7002 9.5682 1.7002 8.63213C1.7002 7.55987 1.934 6.63506 2.40232 5.86007C2.77038 5.23757 3.26002 4.74652 3.87285 4.38604C4.48567 4.02556 5.14783 3.84186 5.86092 3.83011C6.2511 3.83011 6.76277 3.94971 7.39862 4.18476C8.03268 4.42061 8.4398 4.54021 8.6183 4.54021C8.75175 4.54021 9.20401 4.40036 9.97072 4.12156C10.6958 3.863 11.3077 3.75594 11.809 3.79811C13.1674 3.90675 14.188 4.4374 14.8667 5.39342C13.6518 6.12288 13.0508 7.14457 13.0628 8.45525C13.0737 9.47616 13.4475 10.3257 14.182 11.0003C14.5149 11.3133 14.8866 11.5553 15.3002 11.7272C15.2105 11.9849 15.1158 12.2318 15.0152 12.4689ZM11.8997 0.320091C11.8997 1.12027 11.6047 1.8674 11.0167 2.55894C10.3071 3.38104 9.44879 3.85608 8.51804 3.78112C8.50618 3.68512 8.4993 3.58409 8.4993 3.47792C8.4993 2.70975 8.83676 1.88765 9.43603 1.21547C9.73522 0.875136 10.1157 0.592152 10.5772 0.36641C11.0376 0.144037 11.4731 0.0210593 11.8828 0C11.8947 0.106972 11.8997 0.213951 11.8997 0.320081V0.320091Z" fill="white"/>
</svg>
